<svg width="282" height="37" viewBox="0 0 282 37" fill="none" xmlns="http://www.w3.org/2000/svg">
<g clip-path="url(#clip0_45_3)">
<path d="M126.458 5.71246H123.904V9.7991H123.194V5.07129H126.458V5.71246Z" fill="#F5F5F5"/>
<path d="M131.452 5.07129V9.7991H130.708V5.71246H128.563V6.47668C128.57 7.05677 128.536 7.63666 128.462 8.21237C128.419 8.58163 128.31 8.94092 128.14 9.27451C128.029 9.47927 127.865 9.65315 127.664 9.77967C127.472 9.8744 127.257 9.92115 127.041 9.91568C126.956 9.9221 126.871 9.9221 126.786 9.91568C126.722 9.90369 126.66 9.88635 126.599 9.86387H126.532V9.10612C126.658 9.16867 126.798 9.20192 126.941 9.20327C127.03 9.20807 127.119 9.19565 127.203 9.16673C127.287 9.13782 127.364 9.09299 127.43 9.03488C127.601 8.7971 127.705 8.52029 127.732 8.2318C127.825 7.6426 127.865 7.0467 127.852 6.45077V5.07129H131.452Z" fill="#F5F5F5"/>
<path d="M134.408 9.7991L132.397 5.07129H133.161L134.743 8.91183L136.318 5.07129H137.089L134.843 10.4856C134.701 10.8817 134.472 11.2438 134.173 11.5477C133.935 11.7611 133.619 11.8751 133.295 11.8651C133.19 11.875 133.085 11.875 132.98 11.8651C132.902 11.8562 132.826 11.8388 132.752 11.8133H132.685V11.1656C132.844 11.2312 133.015 11.2664 133.188 11.2693C133.405 11.264 133.614 11.1883 133.782 11.0545C133.95 10.9206 134.066 10.7363 134.113 10.5309L134.408 9.7991Z" fill="#F5F5F5"/>
<path d="M142.009 9.20953C141.787 9.42415 141.522 9.59241 141.231 9.70383C140.939 9.81525 140.626 9.86745 140.313 9.85717C139.977 9.86679 139.643 9.80036 139.338 9.66318C139.033 9.52599 138.766 9.32185 138.557 9.06705C138.067 8.41486 137.83 7.61718 137.886 6.81324C137.886 4.65442 138.718 3.42389 140.38 3.12166C140.707 3.0705 141.03 2.99471 141.345 2.89498C141.542 2.84063 141.732 2.76228 141.908 2.66183L142.062 2.57764L142.418 3.12166C141.828 3.46963 141.167 3.69053 140.481 3.7693C139.961 3.86178 139.494 4.13336 139.167 4.53353C138.811 4.9853 138.625 5.53999 138.637 6.10731C138.653 6.06897 138.675 6.0338 138.704 6.00368C138.763 5.92358 138.83 5.84976 138.905 5.78348C139.01 5.6781 139.124 5.58267 139.247 5.49852C139.403 5.40404 139.569 5.32794 139.743 5.27184C139.943 5.20195 140.154 5.16686 140.367 5.16822C140.675 5.1607 140.982 5.21558 141.267 5.32935C141.552 5.44311 141.809 5.61325 142.022 5.82882C142.243 6.05204 142.415 6.31512 142.53 6.60296C142.645 6.89081 142.7 7.19776 142.692 7.50622C142.706 7.82034 142.653 8.13381 142.535 8.42694C142.417 8.72007 142.238 8.98651 142.009 9.20953ZM139.127 8.75618C139.278 8.91412 139.461 9.04 139.666 9.12584C139.87 9.21168 140.09 9.25562 140.313 9.25486C140.536 9.25682 140.757 9.21343 140.961 9.12751C141.165 9.04159 141.349 8.91507 141.499 8.75618C141.663 8.59493 141.791 8.40339 141.877 8.19305C141.962 7.98272 142.002 7.75791 141.995 7.53213C142.002 7.30634 141.962 7.08153 141.877 6.8712C141.791 6.66086 141.663 6.46932 141.499 6.30808C141.347 6.1527 141.163 6.0298 140.959 5.94727C140.754 5.86474 140.534 5.82439 140.313 5.82882C140.09 5.82806 139.87 5.872 139.666 5.95784C139.461 6.04368 139.278 6.16956 139.127 6.32751C138.965 6.48993 138.838 6.68182 138.754 6.89198C138.67 7.10214 138.631 7.32636 138.637 7.55156C138.629 7.99978 138.805 8.43286 139.127 8.75618Z" fill="#F5F5F5"/>
<path d="M144.415 5.68641C144.645 5.45865 144.92 5.27764 145.223 5.15406C145.526 5.03047 145.852 4.9668 146.181 4.9668C146.511 4.9668 146.836 5.03047 147.14 5.15406C147.443 5.27764 147.718 5.45865 147.948 5.68641C148.184 5.91552 148.37 6.18859 148.495 6.48913C148.619 6.78967 148.679 7.11145 148.672 7.43505C148.678 7.7585 148.618 8.07996 148.493 8.38034C148.369 8.68072 148.183 8.95391 147.948 9.18369C147.479 9.63573 146.844 9.88962 146.181 9.88962C145.519 9.88962 144.884 9.63573 144.415 9.18369C144.177 8.95512 143.99 8.68229 143.864 8.38173C143.739 8.08117 143.678 7.75911 143.685 7.43505C143.676 7.11079 143.736 6.78829 143.862 6.4875C143.988 6.18672 144.176 5.91407 144.415 5.68641ZM147.438 6.13976C147.276 5.97435 147.081 5.84261 146.864 5.75259C146.647 5.66256 146.414 5.61613 146.178 5.61613C145.942 5.61613 145.709 5.66256 145.492 5.75259C145.275 5.84261 145.08 5.97435 144.918 6.13976C144.746 6.31119 144.611 6.51406 144.521 6.73648C144.432 6.9589 144.389 7.19639 144.395 7.43505C144.389 7.67361 144.433 7.91091 144.522 8.13322C144.612 8.35554 144.746 8.55849 144.918 8.73034C145.078 8.89833 145.273 9.03227 145.49 9.12369C145.707 9.2151 145.941 9.262 146.178 9.26141C146.414 9.26402 146.649 9.21868 146.866 9.12832C147.083 9.03795 147.278 8.90458 147.438 8.73682C147.61 8.56496 147.744 8.36202 147.834 8.1397C147.923 7.91738 147.967 7.68009 147.961 7.44152C147.972 7.20363 147.933 6.96608 147.848 6.74263C147.763 6.51918 147.633 6.31427 147.465 6.13976H147.438Z" fill="#F5F5F5"/>
<path d="M150.662 9.7991H149.952V5.07129H150.662V7.57768L153.109 5.07129H153.98L152.09 7.01423L154.168 9.7991H153.364L151.634 7.48701L150.662 8.47143V9.7991Z" fill="#F5F5F5"/>
<path d="M158.056 6.79358C158.062 6.63612 158.035 6.4791 157.976 6.33211C157.917 6.18512 157.828 6.05126 157.714 5.93869C157.597 5.831 157.459 5.74689 157.309 5.69129C157.158 5.63568 156.997 5.6097 156.836 5.61487C156.582 5.61451 156.331 5.67221 156.105 5.78326C155.919 5.86906 155.751 5.98766 155.609 6.13298L155.455 6.30137L154.999 5.86097L155.08 5.76383C155.149 5.68632 155.225 5.6148 155.307 5.5501C155.423 5.44823 155.549 5.35716 155.683 5.27809C155.842 5.18608 156.014 5.11425 156.192 5.06437C156.409 4.99687 156.635 4.96406 156.863 4.96722C157.118 4.9594 157.371 5.00189 157.609 5.09208C157.846 5.18228 158.062 5.31829 158.243 5.49181C158.422 5.65949 158.564 5.8611 158.658 6.084C158.753 6.30689 158.799 6.54627 158.793 6.78711V9.79218H158.056V9.14454L157.995 9.22225L157.808 9.4036C157.71 9.48629 157.604 9.56001 157.493 9.6238C157.353 9.70504 157.202 9.76613 157.044 9.80514C156.858 9.85511 156.666 9.8791 156.474 9.87638C156.026 9.89033 155.588 9.74256 155.247 9.46188C155.094 9.34893 154.969 9.20408 154.882 9.03812C154.795 8.87217 154.748 8.68938 154.744 8.50337C154.736 8.32886 154.765 8.15456 154.828 7.99095C154.891 7.82734 154.988 7.6778 155.113 7.55133C155.413 7.30348 155.786 7.15382 156.179 7.12388L158.056 6.79358ZM157.613 8.81424C157.762 8.66376 157.878 8.48584 157.954 8.2911C158.03 8.09636 158.065 7.88881 158.056 7.68086V7.38294L156.373 7.68086C155.763 7.79096 155.462 8.06944 155.455 8.51632C155.455 8.61851 155.479 8.71931 155.527 8.81049C155.575 8.90166 155.644 8.98062 155.73 9.04091C155.944 9.19359 156.208 9.26917 156.474 9.25464C156.685 9.2613 156.895 9.22561 157.091 9.14981C157.287 9.07401 157.465 8.95975 157.613 8.81424Z" fill="#F5F5F5"/>
<path d="M160.589 5.5179C160.941 5.21143 161.403 5.05092 161.876 5.07102H163.961V9.79883H163.25V8.21858H161.823L160.811 9.79883H159.993L161.112 8.0761L160.998 8.03724C160.913 8.00323 160.832 7.95976 160.757 7.90771C160.64 7.84388 160.536 7.76056 160.449 7.6616C160.346 7.53651 160.265 7.39664 160.207 7.24711C160.126 7.05629 160.087 6.85107 160.093 6.6448C160.089 6.43384 160.132 6.22447 160.217 6.03031C160.303 5.83615 160.429 5.66155 160.589 5.5179ZM161.876 5.71219C161.592 5.69808 161.314 5.79094 161.099 5.97125C161.007 6.0542 160.934 6.15455 160.885 6.26599C160.835 6.37744 160.81 6.49758 160.811 6.61889C160.809 6.74038 160.833 6.86089 160.883 6.97251C160.933 7.08413 161.006 7.18433 161.099 7.26654C161.313 7.44806 161.592 7.54109 161.876 7.5256H163.25V5.71219H161.876Z" fill="#F5F5F5"/>
<path d="M171.053 5.71893H168.244V9.7991H167.574V5.07129H171.803V9.7991H171.086L171.053 5.71893Z" fill="#F5F5F5"/>
<path d="M173.754 7.68102C173.779 8.10447 173.973 8.5019 174.297 8.78849C174.453 8.93845 174.638 9.05692 174.842 9.13698C175.045 9.21705 175.263 9.2571 175.483 9.2548C175.78 9.25845 176.073 9.18937 176.335 9.05402C176.547 8.96209 176.737 8.8274 176.891 8.65896L177.065 8.47114L177.521 8.91154L177.434 9.02164C177.358 9.10565 177.275 9.18362 177.186 9.2548C177.06 9.36473 176.923 9.46236 176.777 9.54624C176.596 9.64944 176.402 9.72996 176.201 9.78586C175.968 9.85601 175.727 9.89097 175.483 9.88949C175.16 9.89183 174.84 9.82912 174.544 9.70534C174.247 9.58157 173.98 9.39946 173.761 9.1706C173.527 8.94126 173.343 8.66893 173.219 8.36969C173.096 8.07046 173.036 7.7504 173.043 7.42843C173.036 7.10702 173.095 6.78744 173.217 6.48833C173.339 6.18922 173.522 5.91657 173.754 5.68627C173.967 5.4591 174.226 5.2777 174.516 5.15385C174.806 5.02999 175.119 4.96646 175.436 4.96738C175.746 4.95797 176.054 5.01066 176.341 5.12214C176.628 5.23361 176.889 5.40144 177.105 5.61503C177.329 5.84014 177.503 6.10632 177.619 6.39779C177.734 6.68925 177.787 7.00008 177.776 7.31186L177.729 7.66806L173.754 7.68102ZM174.317 6.04895C174.007 6.32055 173.807 6.69035 173.754 7.09166H177.065C177.024 6.68697 176.834 6.31004 176.529 6.02952C176.384 5.89427 176.213 5.78802 176.026 5.71688C175.838 5.64575 175.638 5.61113 175.436 5.61503C175.229 5.61204 175.024 5.64887 174.832 5.72337C174.639 5.79786 174.465 5.90853 174.317 6.04895Z" fill="#F5F5F5"/>
<path d="M179.767 11.8648H179.056V5.07101H179.767V5.82876L179.84 5.74456C179.906 5.67046 179.978 5.60119 180.055 5.53732C180.289 5.31762 180.577 5.15934 180.893 5.07749C181.09 5.01712 181.296 4.98654 181.503 4.98682C181.814 4.98856 182.12 5.0548 182.403 5.18106C182.685 5.30732 182.936 5.49065 183.138 5.71866C183.589 6.18968 183.83 6.81317 183.808 7.45435C183.828 8.0953 183.588 8.71828 183.138 9.19004C182.934 9.41568 182.683 9.59658 182.401 9.72057C182.119 9.84457 181.813 9.90879 181.503 9.90893C181.296 9.9113 181.09 9.88291 180.893 9.82473C180.72 9.77766 180.556 9.70793 180.403 9.61749C180.283 9.54702 180.168 9.46686 180.061 9.37786C179.981 9.31338 179.907 9.24183 179.84 9.16413L179.767 9.07346V11.8648ZM180.303 8.71078C180.452 8.87797 180.636 9.01285 180.843 9.1066C181.049 9.20035 181.274 9.25085 181.503 9.2548C181.719 9.24944 181.931 9.19925 182.125 9.10762C182.32 9.01599 182.491 8.88507 182.629 8.72373C182.964 8.37127 183.144 7.90685 183.131 7.42844C183.144 6.95004 182.964 6.48562 182.629 6.13315C182.493 5.9705 182.321 5.83866 182.127 5.74691C181.932 5.65515 181.719 5.60572 181.503 5.60208C181.274 5.60604 181.049 5.65654 180.843 5.75029C180.636 5.84404 180.452 5.97892 180.303 6.1461C179.96 6.48806 179.768 6.94566 179.768 7.42197C179.768 7.89827 179.96 8.35587 180.303 8.69783V8.71078Z" fill="#F5F5F5"/>
<path d="M185.477 7.68102C185.502 8.10447 185.697 8.5019 186.02 8.78849C186.176 8.93845 186.361 9.05692 186.565 9.13698C186.769 9.21705 186.987 9.2571 187.207 9.2548C187.504 9.25845 187.796 9.18937 188.058 9.05402C188.271 8.96209 188.46 8.8274 188.614 8.65896L188.789 8.47114L189.244 8.91154L189.157 9.02164C189.081 9.10565 188.998 9.18362 188.909 9.2548C188.783 9.36473 188.646 9.46236 188.5 9.54624C188.32 9.64944 188.126 9.72996 187.924 9.78586C187.692 9.85601 187.45 9.89097 187.207 9.88949C186.884 9.89183 186.564 9.82912 186.267 9.70534C185.971 9.58157 185.704 9.39946 185.484 9.1706C185.25 8.94126 185.066 8.66893 184.943 8.36969C184.82 8.07046 184.76 7.7504 184.767 7.42843C184.76 7.10702 184.819 6.78744 184.941 6.48833C185.063 6.18922 185.245 5.91657 185.477 5.68627C185.69 5.4591 185.95 5.2777 186.24 5.15385C186.529 5.02999 186.843 4.96646 187.16 4.96738C187.469 4.95797 187.777 5.01066 188.065 5.12214C188.352 5.23361 188.612 5.40144 188.829 5.61503C189.052 5.84014 189.227 6.10632 189.342 6.39779C189.457 6.68925 189.511 7.00008 189.499 7.31186L189.452 7.66806L185.477 7.68102ZM186.04 6.04895C185.73 6.32055 185.53 6.69035 185.477 7.09166H188.789C188.747 6.68697 188.557 6.31004 188.252 6.02952C188.108 5.89427 187.937 5.78802 187.749 5.71688C187.562 5.64575 187.361 5.61113 187.16 5.61503C186.953 5.61204 186.747 5.64887 186.555 5.72337C186.363 5.79786 186.188 5.90853 186.04 6.04895Z" fill="#F5F5F5"/>
<path d="M191.49 11.8648H190.779V5.07101H191.49V5.82876L191.564 5.74456C191.63 5.67046 191.702 5.60119 191.778 5.53732C191.886 5.44037 192.002 5.35362 192.127 5.27826C192.279 5.19418 192.441 5.12684 192.609 5.07749C192.807 5.01847 193.013 4.98792 193.219 4.98682C193.531 4.98848 193.839 5.05465 194.122 5.18088C194.406 5.30712 194.658 5.49048 194.862 5.71866C195.325 6.18451 195.578 6.80862 195.565 7.45435C195.576 8.09982 195.323 8.72341 194.862 9.19004C194.657 9.41618 194.404 9.59733 194.121 9.72133C193.838 9.84533 193.53 9.9093 193.219 9.90893C193.015 9.91064 192.812 9.88225 192.616 9.82473C192.444 9.77766 192.279 9.70792 192.127 9.61748C192.006 9.54702 191.892 9.46686 191.785 9.37785C191.705 9.31338 191.63 9.24183 191.564 9.16413L191.49 9.07346V11.8648ZM192.026 8.71078C192.174 8.87747 192.357 9.0121 192.563 9.10584C192.768 9.19959 192.992 9.25035 193.219 9.2548C193.437 9.25037 193.65 9.20061 193.846 9.10895C194.041 9.01729 194.214 8.88588 194.352 8.72373C194.687 8.37126 194.867 7.90685 194.855 7.42844C194.867 6.95004 194.687 6.48562 194.352 6.13315C194.215 5.97001 194.042 5.8379 193.847 5.74615C193.651 5.65439 193.437 5.60521 193.219 5.60208C192.992 5.60653 192.768 5.65729 192.563 5.75104C192.357 5.84479 192.174 5.97941 192.026 6.1461C191.683 6.48806 191.491 6.94566 191.491 7.42196C191.491 7.89827 191.683 8.35587 192.026 8.69783V8.71078Z" fill="#F5F5F5"/>
<path d="M199.802 6.79394C199.808 6.63647 199.781 6.47945 199.722 6.33247C199.663 6.18548 199.574 6.05161 199.46 5.93904C199.342 5.83145 199.203 5.74747 199.051 5.6919C198.899 5.63633 198.737 5.61027 198.575 5.61522C198.321 5.61559 198.071 5.67325 197.844 5.78361C197.661 5.87096 197.495 5.98942 197.355 6.13334L197.201 6.30173L196.738 5.86133L196.826 5.76418C196.893 5.68501 196.97 5.61333 197.053 5.55046C197.167 5.44868 197.291 5.3576 197.422 5.27845C197.582 5.18763 197.753 5.11587 197.932 5.06472C198.148 4.99822 198.374 4.96543 198.602 4.96758C198.858 4.96038 199.112 5.00313 199.351 5.09326C199.589 5.1834 199.806 5.31907 199.989 5.49217C200.168 5.65985 200.31 5.86145 200.404 6.08435C200.499 6.30725 200.545 6.54662 200.539 6.78746V9.79254H199.828V9.14489L199.768 9.22261L199.574 9.40395C199.477 9.48811 199.372 9.56194 199.259 9.62415C199.121 9.70435 198.972 9.76539 198.816 9.80549C198.631 9.85503 198.439 9.87901 198.247 9.87673C197.796 9.89105 197.357 9.74334 197.013 9.46224C196.861 9.34895 196.737 9.20388 196.652 9.03789C196.566 8.8719 196.52 8.68929 196.517 8.50372C196.508 8.32967 196.536 8.15564 196.598 7.99205C196.66 7.82846 196.756 7.67868 196.879 7.55168C197.173 7.28852 197.547 7.1229 197.945 7.0789L199.802 6.79394ZM199.353 8.81459C199.504 8.66531 199.621 8.48774 199.699 8.29281C199.776 8.09789 199.811 7.88974 199.802 7.68121V7.38329L198.119 7.68121C197.509 7.79131 197.201 8.0698 197.201 8.51667C197.2 8.61831 197.224 8.71876 197.27 8.80989C197.317 8.90103 197.385 8.98029 197.469 9.04127C197.686 9.19491 197.951 9.27051 198.22 9.25499C198.43 9.26155 198.639 9.22578 198.834 9.14996C199.029 9.07414 199.206 8.95993 199.353 8.81459Z" fill="#F5F5F5"/>
<path d="M206.082 9.20976C205.859 9.42394 205.593 9.59184 205.3 9.7032C205.007 9.81456 204.694 9.86703 204.38 9.85741C204.044 9.86702 203.71 9.80059 203.405 9.66341C203.1 9.52622 202.832 9.32208 202.624 9.06728C202.134 8.41509 201.897 7.61741 201.953 6.81347C201.953 4.65465 202.784 3.42412 204.447 3.12189C204.774 3.07073 205.097 2.99494 205.412 2.89521C205.609 2.84086 205.798 2.76251 205.975 2.66206L206.116 2.59082L206.471 3.13484C205.881 3.48281 205.22 3.70372 204.534 3.78249C204.022 3.87614 203.561 4.14238 203.234 4.53376C202.878 4.98554 202.692 5.54022 202.704 6.10754C202.722 6.07053 202.745 6.03574 202.771 6.00391C202.83 5.92381 202.897 5.84999 202.972 5.78371C203.202 5.54676 203.49 5.3706 203.81 5.27207C204.013 5.20582 204.226 5.17512 204.44 5.1814C204.746 5.17312 205.051 5.22641 205.335 5.3379C205.619 5.44939 205.876 5.61664 206.089 5.82905C206.31 6.05227 206.482 6.31535 206.597 6.60319C206.712 6.89104 206.767 7.19799 206.759 7.50645C206.773 7.81998 206.72 8.13284 206.603 8.42577C206.487 8.71871 206.31 8.98551 206.082 9.20976ZM203.193 8.75641C203.345 8.91435 203.528 9.04023 203.732 9.12607C203.937 9.21192 204.157 9.25585 204.38 9.25509C204.603 9.25705 204.824 9.21366 205.028 9.12774C205.232 9.04182 205.416 8.9153 205.566 8.75641C205.73 8.59516 205.858 8.40362 205.943 8.19329C206.029 7.98295 206.069 7.75814 206.062 7.53236C206.069 7.30657 206.029 7.08177 205.943 6.87143C205.858 6.66109 205.73 6.46955 205.566 6.30831C205.414 6.15293 205.23 6.03004 205.025 5.9475C204.821 5.86497 204.601 5.82462 204.38 5.82905C204.157 5.82829 203.937 5.87223 203.732 5.95807C203.528 6.04391 203.345 6.16979 203.193 6.32774C203.032 6.49016 202.905 6.68205 202.821 6.89221C202.737 7.10237 202.697 7.32659 202.704 7.55179C202.696 8.00001 202.872 8.43309 203.193 8.75641Z" fill="#F5F5F5"/>
<path d="M208.462 5.68641C208.692 5.45865 208.966 5.27764 209.27 5.15406C209.573 5.03047 209.899 4.9668 210.228 4.9668C210.557 4.9668 210.883 5.03047 211.187 5.15406C211.49 5.27764 211.765 5.45865 211.994 5.68641C212.232 5.91498 212.42 6.1878 212.545 6.48837C212.671 6.78893 212.732 7.11099 212.725 7.43505C212.73 7.75891 212.668 8.08054 212.543 8.38089C212.417 8.68124 212.231 8.95423 211.994 9.18369C211.526 9.63573 210.89 9.88962 210.228 9.88962C209.566 9.88962 208.931 9.63573 208.462 9.18369C208.224 8.95512 208.037 8.68229 207.911 8.38173C207.785 8.08117 207.724 7.75911 207.731 7.43505C207.723 7.11079 207.783 6.78829 207.909 6.4875C208.035 6.18672 208.223 5.91407 208.462 5.68641ZM211.485 6.13976C211.323 5.97453 211.128 5.84291 210.912 5.75296C210.696 5.663 210.463 5.6166 210.228 5.6166C209.993 5.6166 209.76 5.663 209.544 5.75296C209.328 5.84291 209.133 5.97453 208.971 6.13976C208.797 6.31 208.661 6.51251 208.57 6.73511C208.479 6.95771 208.435 7.1958 208.442 7.43505C208.436 7.6742 208.48 7.91208 208.571 8.13457C208.662 8.35707 208.798 8.55966 208.971 8.73034C209.132 8.89727 209.326 9.03041 209.543 9.12145C209.759 9.21249 209.992 9.25948 210.228 9.25948C210.464 9.25948 210.697 9.21249 210.914 9.12145C211.13 9.03041 211.324 8.89727 211.485 8.73034C211.656 8.55849 211.791 8.35554 211.88 8.13322C211.97 7.91091 212.013 7.67361 212.008 7.43505C212.016 7.19778 211.977 6.96119 211.89 6.73889C211.804 6.51659 211.673 6.31297 211.505 6.13976H211.485Z" fill="#F5F5F5"/>
<path d="M213.409 5.07129H217.585V5.71893H215.835V9.80558H215.165V5.71246H213.436L213.409 5.07129Z" fill="#F5F5F5"/>
<path d="M219.321 9.7991H218.61V5.07129H219.321V7.57768L221.761 5.07129H222.632L220.748 7.01423L222.84 9.82501H222.022L220.293 7.51291L219.321 8.49733V9.7991Z" fill="#F5F5F5"/>
<path d="M226.714 6.79394C226.72 6.63647 226.693 6.47945 226.634 6.33247C226.575 6.18548 226.486 6.05161 226.372 5.93904C226.254 5.83145 226.115 5.74747 225.963 5.6919C225.811 5.63633 225.65 5.61027 225.487 5.61522C225.234 5.61559 224.983 5.67325 224.757 5.78361C224.573 5.87096 224.408 5.98942 224.267 6.13334L224.113 6.30173L223.651 5.86133L223.738 5.76418C223.805 5.68501 223.882 5.61333 223.966 5.55046C224.079 5.44868 224.203 5.3576 224.334 5.27845C224.495 5.18763 224.666 5.11587 224.844 5.06472C225.06 4.99768 225.287 4.96487 225.514 4.96758C225.77 4.96038 226.025 5.00313 226.263 5.09326C226.502 5.1834 226.719 5.31907 226.902 5.49217C227.081 5.65985 227.222 5.86145 227.317 6.08435C227.411 6.30725 227.457 6.54662 227.451 6.78746V9.79254H226.741V9.14489C226.721 9.17293 226.699 9.19897 226.674 9.22261L226.486 9.40395C226.39 9.48811 226.284 9.56194 226.171 9.62415C226.033 9.70435 225.884 9.76539 225.729 9.80549C225.543 9.85503 225.351 9.87901 225.159 9.87673C224.709 9.89105 224.269 9.74334 223.926 9.46224C223.773 9.34928 223.648 9.20443 223.561 9.03848C223.474 8.87252 223.427 8.68973 223.423 8.50372C223.415 8.32921 223.443 8.15491 223.507 7.9913C223.57 7.82769 223.667 7.67815 223.792 7.55168C224.084 7.28976 224.455 7.12423 224.851 7.0789L226.714 6.79394ZM226.265 8.81459C226.416 8.66531 226.534 8.48774 226.611 8.29281C226.688 8.09789 226.723 7.88974 226.714 7.68121V7.38329L225.032 7.68121C224.422 7.79131 224.113 8.0698 224.113 8.51667C224.112 8.61831 224.136 8.71876 224.183 8.80989C224.229 8.90103 224.297 8.98029 224.381 9.04127C224.598 9.19491 224.864 9.27051 225.132 9.25499C225.342 9.26155 225.551 9.22578 225.746 9.14996C225.942 9.07414 226.118 8.95993 226.265 8.81459Z" fill="#F5F5F5"/>
<path d="M235.528 11.0102H234.811V9.7991H230.89V11.0102H230.179V9.15793H230.528L230.622 9.06079C230.7 8.95948 230.772 8.85349 230.836 8.74344C230.941 8.57483 231.028 8.39701 231.098 8.21237C231.193 7.96429 231.264 7.70854 231.312 7.44815C231.372 7.1189 231.401 6.78509 231.399 6.45077V5.07129H234.751V9.15793H235.522L235.528 11.0102ZM232.11 6.47668C232.115 6.97769 232.047 7.47691 231.909 7.95979C231.822 8.295 231.684 8.61587 231.5 8.91183L231.299 9.18384H234.047V5.71246H232.11V6.47668Z" fill="#F5F5F5"/>
<path d="M237.358 11.8648H236.648V5.07101H237.358V5.82876L237.432 5.74456C237.498 5.67046 237.57 5.60119 237.647 5.53732C237.755 5.44189 237.872 5.35524 237.995 5.27826C238.15 5.19312 238.314 5.12574 238.484 5.07749C238.682 5.018 238.888 4.98744 239.094 4.98682C239.405 4.98856 239.712 5.0548 239.994 5.18106C240.277 5.30732 240.527 5.49065 240.73 5.71866C241.193 6.18451 241.446 6.80862 241.434 7.45435C241.451 8.09495 241.211 8.71719 240.763 9.19004C240.558 9.4152 240.305 9.59569 240.022 9.71961C239.739 9.84352 239.432 9.90805 239.121 9.90893C238.735 9.90777 238.355 9.80718 238.022 9.61748C237.902 9.54542 237.788 9.46535 237.68 9.37785C237.6 9.31338 237.526 9.24183 237.459 9.16413L237.385 9.07346L237.358 11.8648ZM237.895 8.71078C238.044 8.87796 238.228 9.01284 238.434 9.10659C238.641 9.20034 238.866 9.25085 239.094 9.2548C239.312 9.24952 239.525 9.19939 239.72 9.10779C239.916 9.01619 240.089 8.88524 240.227 8.72373C240.557 8.36885 240.735 7.90551 240.723 7.42844C240.735 6.95137 240.557 6.48803 240.227 6.13315C240.09 5.97034 239.917 5.83847 239.722 5.74675C239.526 5.65502 239.312 5.60565 239.094 5.60208C238.866 5.60603 238.641 5.65654 238.434 5.75029C238.228 5.84404 238.044 5.97892 237.895 6.1461C237.551 6.48806 237.36 6.94566 237.36 7.42196C237.36 7.89827 237.551 8.35587 237.895 8.69783V8.71078Z" fill="#F5F5F5"/>
<path d="M243.069 7.68102C243.094 8.10447 243.289 8.5019 243.612 8.78849C243.768 8.93787 243.954 9.05596 244.157 9.13598C244.361 9.216 244.579 9.25638 244.799 9.25479C245.095 9.25845 245.388 9.18937 245.65 9.05402C245.862 8.96209 246.052 8.8274 246.206 8.65896L246.381 8.47114L246.843 8.91154L246.756 9.02164C246.677 9.10518 246.592 9.1831 246.501 9.25479C246.375 9.36473 246.238 9.46236 246.092 9.54624C245.913 9.64834 245.722 9.72882 245.523 9.78586C245.288 9.85596 245.044 9.89091 244.799 9.88949C244.476 9.89253 244.157 9.8301 243.862 9.70626C243.566 9.58241 243.301 9.39991 243.083 9.1706C242.847 8.94246 242.661 8.67049 242.536 8.37108C242.412 8.07166 242.351 7.751 242.359 7.42843C242.352 7.10702 242.411 6.78744 242.533 6.48833C242.655 6.18922 242.837 5.91657 243.069 5.68627C243.282 5.4591 243.541 5.2777 243.831 5.15385C244.121 5.02999 244.435 4.96646 244.752 4.96738C245.061 4.95797 245.369 5.01066 245.656 5.12214C245.944 5.23361 246.204 5.40144 246.421 5.61503C246.644 5.84014 246.819 6.10632 246.934 6.39779C247.049 6.68925 247.102 7.00008 247.091 7.31186L247.044 7.66806L243.069 7.68102ZM243.632 6.04895C243.322 6.32055 243.122 6.69035 243.069 7.09166H246.381C246.339 6.68846 246.151 6.31237 245.851 6.02952C245.705 5.89407 245.533 5.78775 245.344 5.71663C245.155 5.64551 244.954 5.61098 244.752 5.61503C244.545 5.61204 244.339 5.64887 244.147 5.72337C243.955 5.79786 243.78 5.90853 243.632 6.04895Z" fill="#F5F5F5"/>
<path d="M250.61 5.0713C251.003 5.05191 251.388 5.17686 251.689 5.42103C251.819 5.53032 251.922 5.66589 251.992 5.81812C252.061 5.97034 252.095 6.13549 252.091 6.30182C252.093 6.49547 252.04 6.68583 251.937 6.85232C251.865 6.98926 251.759 7.10708 251.629 7.19557L251.481 7.28625L251.562 7.31863C251.633 7.34579 251.7 7.38055 251.763 7.42225C251.857 7.4723 251.941 7.53809 252.011 7.61654C252.097 7.71089 252.164 7.82099 252.205 7.94037C252.267 8.09302 252.296 8.25589 252.293 8.41963C252.303 8.60551 252.272 8.7914 252.201 8.96464C252.131 9.13787 252.022 9.29437 251.884 9.42348C251.561 9.6917 251.142 9.82661 250.717 9.79911H248.371V5.0713H250.61ZM250.61 5.71894H249.082V7.01423H250.61C251.126 7.01423 251.381 6.80051 251.381 6.36659C251.381 5.93267 251.126 5.71247 250.61 5.71247V5.71894ZM249.082 7.57769V9.15794H250.69C250.811 9.16768 250.932 9.15439 251.047 9.11882C251.162 9.08326 251.269 9.02613 251.361 8.95069C251.437 8.87367 251.497 8.78207 251.535 8.68173C251.573 8.58138 251.589 8.47448 251.582 8.36781C251.59 8.25913 251.574 8.15009 251.536 8.04756C251.498 7.94502 251.438 7.8512 251.361 7.77198C251.269 7.69655 251.162 7.63941 251.047 7.60385C250.932 7.56829 250.811 7.555 250.69 7.56473L249.082 7.57769Z" fill="#F5F5F5"/>
<path d="M254.042 7.68108C254.074 8.10502 254.269 8.50195 254.589 8.79338C254.91 9.0848 255.331 9.24949 255.771 9.25486C256.068 9.25768 256.361 9.18865 256.623 9.05409C256.834 8.9605 257.023 8.82605 257.179 8.65903L257.353 8.47121L257.809 8.91161L257.722 9.02171C257.644 9.10403 257.561 9.18188 257.474 9.25486C257.346 9.36489 257.206 9.4625 257.058 9.5463C256.88 9.64957 256.688 9.73012 256.489 9.78593C256.256 9.85558 256.015 9.89052 255.771 9.88956C255.447 9.89361 255.125 9.8317 254.828 9.70785C254.53 9.58399 254.262 9.40097 254.042 9.17067C253.806 8.94253 253.62 8.67056 253.496 8.37114C253.371 8.07173 253.311 7.75107 253.318 7.4285C253.313 7.10623 253.374 6.78621 253.499 6.4871C253.623 6.188 253.808 5.91579 254.042 5.68634C254.255 5.46392 254.512 5.28563 254.799 5.16231C255.085 5.03899 255.394 4.97321 255.708 4.96897C256.021 4.96473 256.332 5.02212 256.622 5.13764C256.912 5.25317 257.174 5.42443 257.393 5.641C257.616 5.86696 257.789 6.13328 257.905 6.42454C258.02 6.7158 258.074 7.02622 258.064 7.33783L258.01 7.69404L254.042 7.68108ZM254.598 6.04902C254.285 6.33122 254.088 6.71283 254.042 7.12411H257.353C257.309 6.7202 257.119 6.34418 256.817 6.06197C256.671 5.92623 256.499 5.81972 256.31 5.74858C256.122 5.67744 255.92 5.64308 255.718 5.64748C255.511 5.63919 255.304 5.67039 255.11 5.73929C254.916 5.80819 254.737 5.91344 254.585 6.04902H254.598Z" fill="#F5F5F5"/>
<path d="M259.693 5.68623C259.912 5.45738 260.179 5.27526 260.476 5.15149C260.772 5.02772 261.092 4.96501 261.415 4.96735C261.785 4.96662 262.15 5.04864 262.481 5.20698C262.744 5.32406 262.984 5.48398 263.192 5.67976L263.406 5.90643L262.89 6.39865L262.83 6.31445C262.775 6.24858 262.717 6.18586 262.655 6.12663C262.567 6.03424 262.468 5.9517 262.36 5.88053C262.231 5.80124 262.092 5.74018 261.945 5.69919C261.775 5.64143 261.595 5.61293 261.415 5.61499C261.185 5.6146 260.958 5.66112 260.747 5.75152C260.537 5.84191 260.349 5.97415 260.195 6.13959C259.855 6.48917 259.672 6.95498 259.686 7.43488C259.673 7.91454 259.856 8.37982 260.195 8.73017C260.349 8.89561 260.537 9.02784 260.747 9.11824C260.958 9.20863 261.185 9.25516 261.415 9.25476C261.699 9.2558 261.978 9.18668 262.226 9.05399C262.437 8.95859 262.626 8.82438 262.783 8.65893L262.944 8.47111L263.453 8.91151C263.425 8.95065 263.393 8.98748 263.359 9.02161C263.277 9.10468 263.19 9.18255 263.098 9.25476C262.969 9.36479 262.83 9.4624 262.682 9.5462C262.505 9.64841 262.316 9.72891 262.119 9.78583C261.696 9.91334 261.244 9.92327 260.814 9.81448C260.385 9.70569 259.997 9.48257 259.693 9.17057C259.456 8.94243 259.271 8.67046 259.146 8.37104C259.022 8.07163 258.961 7.75097 258.969 7.4284C258.963 7.10598 259.023 6.78565 259.148 6.48639C259.272 6.18713 259.457 5.91503 259.693 5.68623Z" fill="#F5F5F5"/>
<path d="M268.856 5.07129V9.7991H268.118V6.25648L265.162 9.7991H264.559V5.07129H265.269V8.61391L268.225 5.07129H268.856Z" fill="#F5F5F5"/>
<path d="M274.003 7.72664H271.202V9.7991H270.491V5.07129H271.202V7.12433H274.003V5.07129H274.721V9.7991H274.003V7.72664Z" fill="#F5F5F5"/>
<path d="M279.594 9.36518C279.235 9.66835 278.769 9.82409 278.293 9.7991H276.349V5.07129H277.06V6.64507H278.287C278.762 6.62146 279.228 6.77703 279.587 7.07899C279.747 7.22574 279.873 7.40396 279.957 7.60168C280.04 7.7994 280.078 8.01204 280.07 8.22532C280.078 8.437 280.04 8.64798 279.958 8.84442C279.876 9.04086 279.752 9.21833 279.594 9.36518ZM278.293 9.15793C278.576 9.16994 278.853 9.07465 279.064 8.8924C279.156 8.80994 279.23 8.70969 279.279 8.59813C279.329 8.48657 279.354 8.36618 279.352 8.24475C279.353 8.12344 279.328 8.0033 279.278 7.89185C279.229 7.78041 279.156 7.68006 279.064 7.59711C278.848 7.41912 278.57 7.32659 278.287 7.33805H277.06V9.20974L278.293 9.15793ZM281.698 9.80558H280.981V5.07129H281.698V9.80558Z" fill="#F5F5F5"/>
<path d="M132.718 30.6595L129.153 25.6143L125.56 30.6595H121.94L127.115 23.5872L122.262 16.8711H125.875L129.153 21.586L132.377 16.8711H136.036L131.177 23.5678L136.351 30.6919L132.718 30.6595Z" fill="#F5F5F5"/>
<path d="M143.839 30.6595V29.6232C143.42 30.0531 142.911 30.3912 142.345 30.6147C141.78 30.8381 141.171 30.9418 140.561 30.9185C140.098 30.9377 139.637 30.8666 139.203 30.7095C138.77 30.5525 138.374 30.3126 138.038 30.0043C137.703 29.696 137.436 29.3256 137.252 28.9152C137.068 28.5048 136.971 28.0628 136.968 27.6155C136.968 25.2775 138.919 24.3773 140.561 24.3773C141.165 24.3433 141.771 24.4343 142.336 24.6443C142.901 24.8542 143.413 25.1783 143.839 25.5949V24.2543C143.839 23.2374 142.94 22.5768 141.566 22.5768C140.441 22.58 139.361 23.0022 138.55 23.7556L137.524 22.0199C138.782 20.9811 140.388 20.4214 142.042 20.4461C144.395 20.4461 146.553 21.3593 146.553 24.2283V30.7048L143.839 30.6595ZM143.839 28.2632V27.0197C143.565 26.726 143.227 26.4956 142.848 26.3454C142.47 26.1951 142.062 26.129 141.654 26.1519C140.588 26.1519 139.71 26.6894 139.71 27.6609C139.71 28.6323 140.588 29.131 141.654 29.131C142.062 29.1539 142.47 29.0877 142.848 28.9375C143.227 28.7873 143.565 28.5568 143.839 28.2632Z" fill="#F5F5F5"/>
<path d="M151.963 29.3772V34.4612H149.248V20.6793H151.963V21.9358C152.339 21.465 152.823 21.0841 153.376 20.8225C153.929 20.5608 154.537 20.4254 155.153 20.4268C157.801 20.4268 159.725 22.3308 159.725 25.6597C159.725 28.9886 157.801 30.9057 155.153 30.9057C154.535 30.9107 153.923 30.775 153.369 30.5095C152.815 30.244 152.333 29.8561 151.963 29.3772ZM156.903 25.6597C156.903 23.9435 155.857 22.7648 154.295 22.7648C153.844 22.7742 153.4 22.8808 152.996 23.0768C152.593 23.2729 152.24 23.5535 151.963 23.8981V27.4343C152.243 27.7765 152.596 28.0557 152.999 28.2525C153.402 28.4493 153.844 28.5591 154.295 28.5741C155.857 28.5741 156.903 27.3954 156.903 25.6597Z" fill="#F5F5F5"/>
<path d="M161.052 25.6599C161.101 24.2911 161.699 22.9944 162.719 22.0431C163.739 21.0918 165.101 20.5601 166.518 20.5601C167.936 20.5601 169.298 21.0918 170.317 22.0431C171.337 22.9944 171.935 24.2911 171.984 25.6599C171.935 27.0286 171.337 28.3253 170.317 29.2766C169.298 30.228 167.936 30.7597 166.518 30.7597C165.101 30.7597 163.739 30.228 162.719 29.2766C161.699 28.3253 161.101 27.0286 161.052 25.6599ZM169.162 25.6599C169.162 24.1055 168.197 22.7649 166.481 22.7649C164.765 22.7649 163.847 24.1055 163.847 25.6599C163.847 27.2142 164.792 28.5743 166.481 28.5743C168.17 28.5743 169.162 27.2013 169.162 25.6599Z" fill="#F5F5F5"/>
<path d="M173.989 30.6594V20.6792H180.537C182.635 20.6792 183.701 21.8968 183.701 23.2698C183.714 23.783 183.549 24.2857 183.232 24.6977C182.915 25.1096 182.464 25.4072 181.952 25.543C182.517 25.6739 183.02 25.987 183.377 26.4308C183.734 26.8746 183.924 27.4226 183.916 27.9846C183.916 29.4937 182.803 30.6918 180.732 30.6918L173.989 30.6594ZM180.98 23.6713C180.981 23.5522 180.957 23.434 180.908 23.3247C180.859 23.2154 180.786 23.1174 180.695 23.0372C180.604 22.957 180.496 22.8964 180.379 22.8595C180.261 22.8225 180.137 22.8101 180.015 22.8229H176.743V24.5003H180.015C180.135 24.512 180.257 24.4993 180.373 24.4631C180.488 24.427 180.594 24.3681 180.685 24.2902C180.776 24.2123 180.849 24.1171 180.9 24.0106C180.95 23.9041 180.978 23.7885 180.98 23.6713ZM181.167 27.5572C181.166 27.427 181.137 27.2984 181.082 27.1796C181.026 27.0609 180.946 26.9546 180.845 26.8675C180.745 26.7804 180.627 26.7144 180.499 26.6737C180.371 26.633 180.236 26.6185 180.102 26.6311H176.75V28.4963H180.102C180.234 28.5091 180.367 28.4948 180.493 28.4542C180.619 28.4136 180.734 28.3476 180.832 28.2607C180.929 28.1738 181.007 28.0679 181.059 27.95C181.111 27.8321 181.136 27.7048 181.134 27.5766L181.167 27.5572Z" fill="#F5F5F5"/>
<path d="M185.86 25.66C185.835 24.9613 185.96 24.2653 186.227 23.6157C186.494 22.9661 186.898 22.3769 187.412 21.8854C187.927 21.3938 188.541 21.0105 189.216 20.7595C189.891 20.5085 190.613 20.3953 191.336 20.427C192.118 20.3825 192.899 20.5233 193.611 20.8371C194.324 21.1509 194.946 21.6282 195.425 22.2274L193.648 23.8401C193.41 23.4951 193.084 23.215 192.701 23.0268C192.318 22.8385 191.892 22.7484 191.463 22.765C191.077 22.7582 190.693 22.8299 190.337 22.9755C189.98 23.1212 189.66 23.3374 189.396 23.6103C189.132 23.8833 188.93 24.2067 188.803 24.5598C188.677 24.9129 188.628 25.2877 188.661 25.66C188.661 27.3956 189.821 28.5744 191.463 28.5744C191.891 28.5815 192.313 28.4872 192.694 28.2997C193.075 28.1123 193.403 27.8374 193.648 27.4993L195.425 29.086C194.951 29.6918 194.33 30.1751 193.617 30.4926C192.904 30.8101 192.12 30.9521 191.336 30.9059C190.612 30.9367 189.89 30.8225 189.214 30.5704C188.538 30.3182 187.924 29.9337 187.409 29.4409C186.895 28.9482 186.492 28.3578 186.225 27.7071C185.958 27.0564 185.834 26.3594 185.86 25.66Z" fill="#F5F5F5"/>
<path d="M203.89 30.6594L201.156 26.8124L199.916 28.1077V30.6983H197.194V20.6792H199.916V25.122L203.83 20.6792H207.182L203.093 25.2127L207.309 30.6724L203.89 30.6594Z" fill="#F5F5F5"/>
<path d="M208.636 30.6594V20.6792H211.358V26.7088L215.614 20.6792H218.349V30.6594H215.634V24.3967L211.25 30.6594H208.636Z" fill="#F5F5F5"/>
<path d="M221.043 30.6596V20.6794H223.758V26.709L228.014 20.6794H230.756V30.6596H228.035V24.3969L223.651 30.6596H221.043ZM225.896 19.6496C225.167 19.6506 224.447 19.4872 223.794 19.1725C223.141 18.8577 222.574 18.4001 222.136 17.8362L223.329 16.8647C223.619 17.2591 224.002 17.5806 224.447 17.8025C224.892 18.0243 225.386 18.1401 225.886 18.1401C226.387 18.1401 226.88 18.0243 227.325 17.8025C227.77 17.5806 228.153 17.2591 228.443 16.8647L229.643 17.8362C229.213 18.409 228.649 18.875 227.996 19.1959C227.344 19.5168 226.622 19.6834 225.89 19.682L225.896 19.6496Z" fill="#F5F5F5"/>
<path d="M238.129 28.302C239.584 28.1142 240.401 27.5572 240.851 23.924L241.682 16.8711H251.823V28.0754H253.104V33.1982H250.067V30.6595H241.166V33.1982H238.129V28.302ZM242.151 28.0754H248.78V19.4293H244.437L243.887 24.0988C243.652 25.9899 243.029 27.2658 242.131 28.0754H242.151Z" fill="#F5F5F5"/>
<path d="M254.196 23.7753C254.167 22.8266 254.34 21.8822 254.704 21.0008C255.069 20.1194 255.617 19.3198 256.315 18.6517C257.012 17.9836 257.845 17.4612 258.76 17.1171C259.676 16.773 260.655 16.6144 261.636 16.6512C265.96 16.6512 269.104 19.6304 269.104 23.7753C269.104 27.9202 265.96 30.8994 261.636 30.8994C260.655 30.9372 259.675 30.7793 258.759 30.4355C257.843 30.0917 257.01 29.5694 256.312 28.9011C255.614 28.2328 255.066 27.4328 254.702 26.551C254.338 25.6691 254.166 24.7243 254.196 23.7753ZM265.98 23.7753C265.98 21.1847 264.271 19.2418 261.636 19.2418C259.002 19.2418 257.313 21.1847 257.313 23.7753C257.313 26.3659 259.009 28.3088 261.636 28.3088C264.264 28.3088 265.98 26.34 265.98 23.7753Z" fill="#F5F5F5"/>
<path d="M270.256 28.6974L271.838 26.7545C272.981 27.7552 274.465 28.3133 276.008 28.3218C277.891 28.3218 278.984 27.5964 278.984 26.5666C278.984 25.5369 277.978 24.9734 275.84 24.9734H272.951V22.3828H275.84C277.529 22.3828 278.749 21.9295 278.749 20.9192C278.749 19.9088 277.462 19.2871 275.84 19.2871C274.409 19.2758 273.027 19.7843 271.966 20.7119L270.451 18.8726C271.189 18.138 272.079 17.5618 273.063 17.1813C274.047 16.8008 275.103 16.6246 276.162 16.6641C279.513 16.6641 281.812 18.1149 281.812 20.4075C281.812 22.1432 280.271 23.2831 278.709 23.5486C280.143 23.6911 282.027 24.7921 282.027 26.8581C282.027 29.2349 279.567 30.9059 276.162 30.9059C273.481 30.9059 271.302 29.9344 270.256 28.6974Z" fill="#F5F5F5"/>
<path d="M106.577 24.7467C106.577 24.6755 106.577 24.5978 106.577 24.5201C106.577 24.4424 106.577 24.2804 106.543 24.1574C106.51 24.0343 106.543 23.9113 106.503 23.7882C106.463 23.6652 106.463 23.6198 106.45 23.5357C106.403 23.2442 106.342 22.9528 106.269 22.6678C106.235 22.5124 106.195 22.3569 106.155 22.2015C106.061 21.889 105.949 21.582 105.82 21.2818C105.786 21.1912 105.759 21.094 105.726 21.0098L105.685 20.9321C105.685 20.8738 105.625 20.822 105.598 20.7637C105.572 20.7054 105.458 20.4658 105.377 20.3233C105.297 20.1808 105.196 20.0189 105.102 19.8765C105.022 19.7534 104.941 19.6368 104.854 19.5202L104.613 19.2223L104.419 19.0086C104.345 18.9309 104.271 18.8596 104.191 18.7884L103.97 18.5876L103.742 18.4063L103.621 18.3221L103.534 18.2573L103.299 18.1084L103.051 17.9659L102.783 17.8364L102.656 17.7781V17.6356L102.897 17.4478C103.038 17.3183 103.179 17.1887 103.313 17.0527L103.373 16.988L103.433 16.9167L103.628 16.6965L103.889 16.3662C103.929 16.3079 103.963 16.2496 104.003 16.1978L104.043 16.1331C104.072 16.1012 104.096 16.0664 104.117 16.0294C104.191 15.9193 104.258 15.8092 104.325 15.6991L104.512 15.3559C104.521 15.3331 104.532 15.3113 104.546 15.2911C104.544 15.2739 104.544 15.2565 104.546 15.2393C104.546 15.1616 104.62 15.0904 104.653 15.0126C104.687 14.9349 104.767 14.773 104.814 14.65C104.861 14.5269 104.908 14.4298 104.948 14.3197C104.995 14.1901 105.042 14.0606 105.082 13.9311C105.122 13.8015 105.169 13.6655 105.21 13.5295L105.25 13.3741C105.25 13.3741 105.25 13.3223 105.25 13.2899C105.25 13.2575 105.25 13.1733 105.297 13.1086C105.344 13.0438 105.37 12.8171 105.397 12.6746C105.424 12.5321 105.444 12.4609 105.464 12.3573C105.461 12.3336 105.461 12.3097 105.464 12.286C105.461 12.2646 105.461 12.2428 105.464 12.2213C105.464 12.0594 105.511 11.9039 105.531 11.742C105.551 11.5801 105.565 11.4635 105.578 11.3275C105.581 11.3126 105.581 11.2971 105.578 11.2822C105.578 11.1073 105.578 10.9389 105.612 10.777C105.645 10.6151 105.612 10.4856 105.612 10.3431C105.615 10.2935 105.615 10.2438 105.612 10.1941C105.612 9.91566 105.612 9.63717 105.612 9.37164C105.612 9.1061 105.551 8.6657 105.505 8.32893C105.505 8.27064 105.505 8.21883 105.464 8.15406C105.424 8.0893 105.411 7.90148 105.391 7.77843C105.295 7.27301 105.16 6.77513 104.988 6.28884L104.834 5.8614C104.794 5.77073 104.774 5.6671 104.734 5.57643C104.613 5.31738 104.486 5.06479 104.352 4.81869C104.218 4.57258 104.11 4.39772 104.03 4.2941C103.929 4.14514 103.829 4.00265 103.722 3.86017L103.42 3.49101L103.118 3.15424L102.83 2.86927C102.723 2.76565 102.609 2.6685 102.502 2.57783L102.153 2.29935L101.784 2.03381L101.382 1.78123C101.255 1.70351 101.127 1.62579 100.993 1.56103L100.511 1.3214L99.9746 1.09473L99.6729 0.991102L99.5791 0.952243L99.3646 0.881002C99.1434 0.809761 98.9088 0.73852 98.6943 0.680232C98.4798 0.621944 98.1514 0.557179 97.8698 0.505367H97.7023H97.5213L96.851 0.414697C96.4488 0.375838 96.0332 0.349932 95.6109 0.343456H95.3763L76.9298 0.0390625C82.5201 0.0779212 86.4145 2.94699 87.1183 8.24473C87.1183 8.38074 87.1585 8.52322 87.1719 8.65923L87.2121 9.1061C87.2121 9.44288 87.2524 9.75375 87.2121 10.1359C87.2121 12.6811 86.2469 15.874 84.1422 17.4931V17.6356C86.9306 18.8337 88.164 22.2533 88.164 25.5045C88.164 32.2659 82.4463 36.916 76.836 36.916L95.2289 36.9937C95.854 36.9926 96.4778 36.9362 97.0923 36.8253H97.2398C97.8309 36.7081 98.4114 36.5457 98.9758 36.3396L99.1903 36.2619C99.7442 36.0456 100.28 35.7879 100.792 35.4912L101.027 35.3552C101.535 35.05 102.017 34.7056 102.468 34.3254L102.589 34.2412L102.783 34.0599L103.219 33.6519L103.42 33.4576C103.5 33.3799 103.567 33.2957 103.641 33.2115L103.856 32.9718C103.896 32.92 103.943 32.8747 103.99 32.8229C104.137 32.6415 104.285 32.4602 104.419 32.2724C104.422 32.2575 104.422 32.242 104.419 32.2271C104.438 32.2045 104.456 32.1807 104.472 32.1558C104.566 32.0263 104.66 31.8968 104.747 31.7608C104.834 31.6247 104.941 31.4564 105.035 31.2944C105.116 31.1584 105.189 31.0289 105.256 30.8929C105.324 30.7569 105.404 30.6079 105.471 30.4655L105.531 30.3359C105.54 30.311 105.551 30.2871 105.565 30.2647C105.565 30.1934 105.625 30.1222 105.659 30.051L105.82 29.6494C105.873 29.5134 105.92 29.3774 105.967 29.2414C106.012 29.1119 106.052 28.9824 106.088 28.8528C106.128 28.7233 106.168 28.5873 106.202 28.4448C106.235 28.3023 106.249 28.244 106.275 28.1404C106.302 28.0368 106.275 28.1404 106.275 28.0951V28.0303L106.356 27.6093C106.356 27.4539 106.403 27.3049 106.423 27.1495V26.9682C106.423 26.9682 106.423 26.9099 106.423 26.8775V26.6832C106.423 26.5083 106.423 26.327 106.423 26.1392C106.423 25.9514 106.423 25.8413 106.423 25.6858V25.5693C106.577 25.2584 106.577 24.9864 106.577 24.7467Z" fill="#F5F5F5"/>
<path d="M45.2316 7.77167L44.7154 7.83643C44.5411 7.83643 44.3669 7.90767 44.1993 7.94653H44.1189H44.0652C43.9111 7.99187 43.7569 8.0372 43.6027 8.09549H43.5558C43.3949 8.16025 43.2341 8.22502 43.0732 8.30274L42.9861 8.34807C42.8453 8.41284 42.7045 8.49055 42.5705 8.56827C42.4163 8.65894 42.2688 8.75609 42.1214 8.85971L42.0275 8.92448C41.9002 9.01515 41.7795 9.11229 41.6589 9.21592L41.5986 9.26125C41.431 9.40373 41.2634 9.55917 41.1092 9.7146L41.0288 9.7988C40.9081 9.92833 40.7942 10.0643 40.6735 10.2003C40.6574 10.2252 40.6394 10.249 40.6199 10.2716C40.5395 10.3709 40.4591 10.4745 40.3786 10.5824L40.2714 10.7314L40.1105 10.9581L39.9965 11.1329L39.8692 11.3402L39.7552 11.5345C39.7217 11.6057 39.6815 11.6705 39.648 11.7353C39.6078 11.8065 39.5676 11.8777 39.534 11.949C39.5005 12.0137 39.467 12.0785 39.4402 12.1433C39.4 12.221 39.3665 12.2987 39.333 12.3764C39.2999 12.4372 39.2708 12.4999 39.2458 12.5642L39.1386 12.8168C39.1386 12.8816 39.0916 12.9399 39.0648 13.0046C39.038 13.0694 39.0045 13.1795 38.971 13.2702C38.9446 13.3314 38.9223 13.3941 38.904 13.458C38.904 13.5551 38.8369 13.6458 38.8101 13.743L38.7498 13.9308C38.7498 14.0214 38.7029 14.1121 38.6761 14.2093L38.6157 14.423L38.5554 14.682L38.4951 14.9476C38.4951 15.0188 38.4951 15.0965 38.4482 15.1743L38.3878 15.4851C38.3878 15.5499 38.3878 15.6147 38.3543 15.6794L38.294 16.0745C38.294 16.1457 38.294 16.2234 38.294 16.2947C38.294 16.3659 38.2605 16.5732 38.2471 16.7157V16.9423C38.2471 17.1172 38.2471 17.2921 38.2136 17.4669C38.2136 17.5317 38.2136 17.5965 38.2136 17.6547C38.2136 17.8749 38.2136 18.0951 38.2136 18.3024V18.555C38.2136 18.8075 38.2136 19.0537 38.2136 19.2933V19.384C38.2404 19.7812 38.2806 20.1698 38.3342 20.5497C38.3342 20.5497 38.3342 20.5886 38.3342 20.6145C38.3744 20.8994 38.4281 21.1844 38.4817 21.4629C38.4848 21.4757 38.4848 21.489 38.4817 21.5018C38.542 21.7802 38.609 22.0523 38.6895 22.3178C38.6864 22.3501 38.6864 22.3826 38.6895 22.4149C38.7632 22.674 38.8436 22.9201 38.9308 23.1662C38.9308 23.2115 38.9308 23.2504 38.9777 23.2957C39.0715 23.5418 39.1654 23.775 39.2659 24.0081C39.2843 24.0392 39.3 24.0717 39.3128 24.1053C39.4402 24.3903 39.581 24.6623 39.7284 24.9278L39.7888 25.0379C39.9027 25.2322 40.0167 25.42 40.1373 25.6014C40.159 25.627 40.177 25.6553 40.1909 25.6855C40.2781 25.8151 40.3719 25.9381 40.4591 26.0612L40.5663 26.1972C40.6333 26.2879 40.7071 26.3721 40.7808 26.4627L40.888 26.5923L41.0757 26.7995L41.1964 26.929L41.3774 27.1039L41.5114 27.2269L41.6723 27.3759L41.8265 27.5119L41.9605 27.6155C42.02 27.6687 42.0827 27.7184 42.1482 27.7645L42.2823 27.8616L42.4766 27.9976L42.6107 28.0818L42.7984 28.2049L42.9458 28.2891L43.1402 28.3927L43.2944 28.4639L43.4888 28.5546L43.6564 28.6259L43.8507 28.7036L44.0183 28.7619L44.2127 28.8266L44.4004 28.8784L44.5881 28.9238L44.8026 28.9691L44.9835 29.0015H45.2249H45.3991H45.7209H45.9086C51.0765 29.0403 53.7912 24.2866 53.8247 18.2765C53.7443 12.0397 50.3191 7.77167 45.922 7.71338C45.7343 7.71338 45.5466 7.71338 45.3656 7.71338L45.2316 7.77167Z" fill="#F5F5F5"/>
<path d="M78.7061 18.2052C78.7061 17.7001 78.7061 17.2014 78.6592 16.7092V16.625C78.6592 16.2688 78.6123 15.919 78.572 15.5758C78.572 15.4916 78.572 15.4074 78.572 15.3232C78.572 15.0642 78.5117 14.8051 78.4782 14.5525C78.4782 14.5525 78.4782 14.5137 78.4782 14.4942V14.3712C78.4112 13.9308 78.3307 13.4969 78.2436 13.0759C78.2436 13.0046 78.2436 12.9399 78.2436 12.8751C78.1498 12.4347 78.0425 12.0073 77.9219 11.5798C77.9219 11.4892 77.8749 11.405 77.8481 11.3208C77.7275 10.8998 77.6001 10.4918 77.4594 10.0902C77.4386 10.046 77.4207 10.0006 77.4057 9.95423C77.265 9.5786 77.1175 9.20944 76.9633 8.85324C76.9448 8.81552 76.9291 8.77656 76.9164 8.73666L76.8762 8.65894C76.8159 8.52294 76.7488 8.38693 76.6885 8.2574C76.6282 8.12787 76.5746 8.01777 76.5142 7.9012L76.3064 7.51261L76.1523 7.23412V7.18879C75.978 6.89087 75.797 6.59943 75.6093 6.31446L75.5624 6.23675L75.4485 6.07484L75.0999 5.5891L75.0061 5.4531L74.9055 5.33004L74.5972 4.94793C74.5503 4.89612 74.5101 4.83783 74.4631 4.77954L74.3827 4.68887L74.0878 4.37153L73.9269 4.19019L73.7325 4.11895L73.4778 3.88579L73.2834 3.6915L73.203 3.62026L72.9416 3.39358C72.8745 3.33529 72.8142 3.27053 72.7472 3.21872L72.6533 3.141L72.3919 2.91432L72.1975 2.75889L72.0836 2.68117L71.8222 2.48688L71.6412 2.35735L71.5004 2.27316L71.2256 2.09829L71.0513 1.98819L70.8905 1.89752L70.5955 1.73561L70.4414 1.64494L70.2671 1.56075L69.952 1.40531L69.7979 1.32759L69.6236 1.25635L69.2818 1.10739L69.1209 1.04263L68.9533 0.984341L68.5578 0.841859L68.3701 0.783571L68.2294 0.738235L67.7736 0.608706L67.5725 0.556895H67.472L66.9022 0.407936L66.7212 0.369077H66.6877C66.3928 0.317266 66.0911 0.27193 65.7895 0.239548H65.5884C65.3002 0.187736 65.0187 0.174784 64.7036 0.161831H64.3484L45.9689 0.0776367H46.3107C46.9855 0.092971 47.6579 0.160106 48.3216 0.278407C48.3938 0.287599 48.4654 0.300571 48.5361 0.317266C48.7841 0.369077 49.0254 0.420889 49.2734 0.485653L49.4276 0.524512L49.8767 0.654041L50.0376 0.705853C50.2253 0.764141 50.4129 0.828906 50.5939 0.900147L50.9157 1.0232L51.2575 1.16568L51.3446 1.21102C51.5323 1.29521 51.72 1.3794 51.901 1.47655C52.0149 1.52836 52.1222 1.58665 52.2294 1.64494L52.6986 1.91695L52.8528 2.00762L53.3019 2.30554L53.4427 2.40268L53.6907 2.5905L53.999 2.83013C54.2738 3.04385 54.542 3.27053 54.8034 3.51664L55.0782 3.77569L55.3329 4.03475L55.4871 4.19666C55.6144 4.33267 55.7418 4.46867 55.8624 4.61116L56.0836 4.87021C56.4445 5.30304 56.7802 5.75494 57.0891 6.22379C57.2768 6.50876 57.4577 6.8002 57.6253 7.10459L57.8063 7.42842C58.4546 8.64082 58.9713 9.91484 59.348 11.2301C59.348 11.3208 59.3949 11.405 59.4217 11.4892C59.5357 11.9101 59.6429 12.3376 59.7367 12.7844L59.777 12.9852C59.9244 13.7106 60.0451 14.4618 60.1322 15.2325C60.1322 15.3167 60.1322 15.388 60.1322 15.4722C60.1322 15.8219 60.1992 16.1716 60.2194 16.5343C60.2194 17.0913 60.273 17.6677 60.273 18.2441C60.273 18.3607 60.273 18.4708 60.273 18.5809C60.273 18.9306 60.273 19.2739 60.273 19.6106C60.273 20.3425 60.1724 21.0614 60.0853 21.7608C60.0853 21.8968 60.0853 22.0264 60.0317 22.1624L59.9512 22.661C59.9512 22.7906 59.911 22.9266 59.8842 23.0561C59.7904 23.5807 59.6764 24.0859 59.5558 24.5845L59.4753 24.8954C59.3681 25.297 59.2474 25.6855 59.1268 26.0741L58.9525 26.5599C58.61 27.5275 58.1886 28.4674 57.6923 29.3706L57.4913 29.7269C57.384 29.9147 57.2701 30.1025 57.1494 30.2838L57.0354 30.4652C56.8746 30.7048 56.7137 30.9444 56.5461 31.1776L56.4255 31.333C56.2847 31.5144 56.144 31.7022 55.9965 31.877C55.9996 31.892 55.9996 31.9074 55.9965 31.9224C55.7418 32.2268 55.4804 32.5247 55.2055 32.8097L55.1653 32.855C54.9173 33.1076 54.6559 33.3537 54.3945 33.5868L54.0727 33.8653L53.6907 34.1697L53.5097 34.3122L53.0405 34.6425L52.8059 34.8044L52.7255 34.8562C52.5713 34.9598 52.4037 35.057 52.2428 35.1541L52.0619 35.2577L51.7401 35.4326C51.3191 35.6518 50.8848 35.8464 50.4397 36.0155L50.2387 36.0997L50.0577 36.158L49.5952 36.3134L49.3874 36.3717L48.8981 36.5012L48.7372 36.5401C48.5138 36.5919 48.2903 36.6372 48.0669 36.6761H47.9261L47.3899 36.7538H47.1687C47.0078 36.7538 46.8403 36.7862 46.6794 36.7927H46.4716C46.2437 36.7927 46.0091 36.7927 45.8013 36.7927L64.1942 36.8639H64.8645H65.079L65.5683 36.8251H65.7895L66.3257 36.7538H66.4732L67.1435 36.6243L67.3111 36.5854L67.8004 36.4559L68.0082 36.3911L68.4707 36.2422L68.6517 36.1774C68.8595 36.0997 69.0673 36.022 69.2683 35.9313L69.3421 35.8989C69.5231 35.8212 69.6973 35.7435 69.8716 35.6528L70.0593 35.5621L70.4816 35.3355L70.6626 35.2318L71.1519 34.9339L71.2323 34.8821C71.42 34.7591 71.6077 34.636 71.7887 34.5L71.9361 34.3899L72.3316 34.0855L72.4992 33.943L72.6332 33.8394L72.8276 33.6645L73.0689 33.4508L73.3638 33.1594C73.4443 33.0881 73.518 33.0104 73.5918 32.9327L73.6655 32.8615L73.766 32.7449C73.9448 32.5549 74.1191 32.3606 74.2889 32.162L74.3961 32.0454C74.4163 32.0158 74.4387 31.9877 74.4631 31.9612C74.6039 31.7799 74.7514 31.5986 74.8921 31.4107C74.9196 31.3671 74.951 31.3259 74.986 31.2877C75.1468 31.061 75.3077 30.8343 75.4686 30.5947C75.5088 30.5364 75.549 30.4652 75.5892 30.4004C75.6898 30.2385 75.797 30.0766 75.8909 29.9017C75.9646 29.7787 76.0316 29.6491 76.1054 29.5196L76.2662 29.2282C76.3601 29.0468 76.4539 28.859 76.5478 28.6647L76.6148 28.5287C76.722 28.2956 76.8293 28.0559 76.9298 27.8163C76.9298 27.7451 76.9834 27.6673 77.017 27.5896C77.0505 27.5119 77.1443 27.2788 77.2046 27.1168C77.2073 27.0953 77.2073 27.0736 77.2046 27.0521L77.3052 26.7606C77.3521 26.6311 77.399 26.5081 77.446 26.3721C77.446 26.3397 77.4459 26.3008 77.4795 26.2684L77.5867 25.9317L77.6873 25.6014L77.7275 25.4589L77.828 25.0962L77.9085 24.8047L77.9487 24.6234C77.9822 24.4874 78.0157 24.3514 78.0425 24.2154L78.1028 23.9563L78.1431 23.7556C78.1431 23.6066 78.2034 23.4641 78.2302 23.3152C78.257 23.1662 78.2302 23.1468 78.2771 23.0626C78.324 22.9784 78.2771 22.9266 78.2771 22.8553C78.2771 22.7841 78.324 22.525 78.3508 22.3566L78.3911 22.0976V21.9162C78.3911 21.7155 78.438 21.5147 78.4581 21.3075C78.4581 21.2168 78.4581 21.1196 78.4581 21.029C78.4548 20.9859 78.4548 20.9426 78.4581 20.8994C78.4581 20.621 78.4983 20.336 78.5184 20.0446C78.5184 19.9798 78.5184 19.9085 78.5184 19.8438V19.7984C78.5184 19.4552 78.5184 19.1055 78.5184 18.7557V18.4578C78.7128 18.3218 78.7061 18.2635 78.7061 18.2052Z" fill="#F5F5F5"/>
<path d="M8.20442 28.6907L8.29826 13.0889L0 28.6518L8.20442 28.6907Z" fill="#F5F5F5"/>
<path d="M32.8847 28.8461V18.9695L32.9986 0.071241L14.599 0L14.4315 28.7619L17.9907 28.7749V28.7879H18.0443L18.0376 29.6298L17.9907 36.9288L36.3903 37L36.4373 28.8591L32.8847 28.8461Z" fill="#F5F5F5"/>
</g>
<defs>
<clipPath id="clip0_45_3">
<rect width="282" height="37" fill="white"/>
</clipPath>
</defs>
</svg>
