<svg width="341" height="45" viewBox="0 0 341 45" fill="none" xmlns="http://www.w3.org/2000/svg">
<g clip-path="url(#clip0_4_4)">
<path d="M152.915 6.94731H149.827V11.9176H148.968V6.16751H152.915V6.94731Z" fill="#474746"/>
<path d="M158.954 6.16751V11.9176H158.054V6.94731H155.461V7.87677C155.469 8.58229 155.428 9.28756 155.339 9.98775C155.287 10.4368 155.155 10.8738 154.95 11.2795C154.815 11.5286 154.617 11.74 154.374 11.8939C154.141 12.0091 153.882 12.066 153.621 12.0593C153.518 12.0672 153.415 12.0672 153.313 12.0593C153.235 12.0448 153.159 12.0237 153.086 11.9963H153.005V11.0747C153.158 11.1508 153.327 11.1913 153.499 11.1929C153.607 11.1987 153.715 11.1836 153.816 11.1485C153.918 11.1133 154.011 11.0588 154.091 10.9881C154.298 10.6989 154.423 10.3622 154.455 10.0114C154.568 9.29479 154.617 8.57004 154.601 7.84526V6.16751H158.954Z" fill="#474746"/>
<path d="M162.528 11.9176L160.097 6.16751H161.021L162.934 10.8384L164.838 6.16751H165.771L163.055 12.7525C162.883 13.2342 162.606 13.6746 162.245 14.0443C161.957 14.3037 161.575 14.4424 161.183 14.4302C161.056 14.4423 160.929 14.4423 160.802 14.4302C160.708 14.4194 160.616 14.3983 160.526 14.3672H160.445V13.5796C160.638 13.6593 160.844 13.7021 161.053 13.7056C161.316 13.6991 161.569 13.6072 161.772 13.4444C161.975 13.2816 162.116 13.0574 162.172 12.8076L162.528 11.9176Z" fill="#474746"/>
<path d="M171.72 11.2008C171.452 11.4618 171.132 11.6664 170.779 11.8019C170.426 11.9375 170.048 12.0009 169.669 11.9884C169.263 12.0001 168.859 11.9194 168.49 11.7525C168.122 11.5857 167.798 11.3374 167.546 11.0275C166.953 10.2343 166.666 9.26414 166.735 8.28637C166.735 5.66077 167.74 4.16419 169.75 3.79661C170.146 3.73438 170.536 3.64221 170.917 3.52092C171.156 3.45481 171.385 3.35952 171.598 3.23735L171.785 3.13496L172.214 3.79661C171.501 4.21981 170.702 4.48848 169.872 4.58428C169.244 4.69675 168.679 5.02705 168.283 5.51374C167.853 6.0632 167.628 6.73782 167.643 7.4278C167.661 7.38117 167.689 7.3384 167.724 7.30177C167.795 7.20435 167.876 7.11457 167.967 7.03396C168.093 6.90579 168.232 6.78972 168.38 6.68738C168.568 6.57248 168.77 6.47992 168.98 6.41169C169.222 6.32669 169.477 6.28402 169.734 6.28567C170.107 6.27652 170.478 6.34327 170.822 6.48163C171.167 6.62 171.478 6.82692 171.736 7.0891C172.003 7.36058 172.211 7.68054 172.351 8.03062C172.49 8.38071 172.556 8.75403 172.547 9.12918C172.563 9.51122 172.498 9.89247 172.356 10.249C172.214 10.6055 171.997 10.9295 171.72 11.2008ZM168.235 10.6494C168.417 10.8415 168.639 10.9946 168.886 11.099C169.133 11.2034 169.4 11.2568 169.669 11.2559C169.939 11.2583 170.206 11.2055 170.453 11.101C170.7 10.9965 170.922 10.8426 171.104 10.6494C171.302 10.4533 171.457 10.2203 171.56 9.96452C171.663 9.7087 171.712 9.43529 171.704 9.16069C171.712 8.88608 171.663 8.61267 171.56 8.35686C171.457 8.10104 171.302 7.86809 171.104 7.67198C170.92 7.48301 170.697 7.33354 170.45 7.23316C170.203 7.13278 169.937 7.08371 169.669 7.0891C169.4 7.08818 169.133 7.14161 168.886 7.24601C168.639 7.35041 168.417 7.50351 168.235 7.69561C168.039 7.89315 167.886 8.12653 167.785 8.38213C167.683 8.63773 167.635 8.91043 167.643 9.18432C167.633 9.72946 167.846 10.2562 168.235 10.6494Z" fill="#474746"/>
<path d="M174.63 6.91581C174.908 6.63881 175.24 6.41866 175.606 6.26835C175.973 6.11804 176.367 6.04061 176.765 6.04061C177.164 6.04061 177.558 6.11804 177.924 6.26835C178.291 6.41866 178.623 6.63881 178.901 6.91581C179.187 7.19446 179.412 7.52657 179.563 7.89209C179.713 8.25761 179.786 8.64897 179.777 9.04253C179.785 9.43593 179.711 9.82689 179.561 10.1922C179.411 10.5575 179.186 10.8898 178.901 11.1693C178.334 11.719 177.566 12.0278 176.765 12.0278C175.965 12.0278 175.196 11.719 174.63 11.1693C174.342 10.8913 174.115 10.5595 173.964 10.1939C173.812 9.82835 173.738 9.43666 173.746 9.04253C173.736 8.64816 173.809 8.25593 173.961 7.89012C174.113 7.5243 174.341 7.19269 174.63 6.91581ZM178.285 7.46718C178.089 7.26601 177.853 7.10579 177.591 6.9963C177.329 6.8868 177.047 6.83033 176.761 6.83033C176.476 6.83033 176.194 6.8868 175.932 6.9963C175.67 7.10579 175.434 7.26601 175.238 7.46718C175.03 7.67568 174.867 7.92241 174.758 8.19292C174.649 8.46343 174.598 8.75228 174.605 9.04253C174.598 9.33268 174.651 9.62128 174.759 9.89167C174.868 10.1621 175.03 10.4089 175.238 10.6179C175.432 10.8222 175.667 10.9851 175.93 11.0963C176.192 11.2075 176.475 11.2645 176.761 11.2638C177.047 11.267 177.33 11.2118 177.593 11.1019C177.855 10.992 178.091 10.8298 178.285 10.6258C178.492 10.4168 178.655 10.1699 178.763 9.89954C178.872 9.62916 178.924 9.34056 178.917 9.05041C178.93 8.76108 178.884 8.47217 178.781 8.20041C178.678 7.92864 178.52 7.67943 178.318 7.46718H178.285Z" fill="#474746"/>
<path d="M182.184 11.9176H181.325V6.16751H182.184V9.21582L185.142 6.16751H186.196L183.91 8.53054L186.423 11.9176H185.45L183.359 9.10555L182.184 10.3028V11.9176Z" fill="#474746"/>
<path d="M191.124 8.26274C191.131 8.07122 191.099 7.88025 191.028 7.70149C190.957 7.52272 190.849 7.35991 190.711 7.223C190.57 7.09202 190.403 6.98973 190.221 6.9221C190.038 6.85448 189.844 6.82288 189.649 6.82916C189.342 6.82872 189.039 6.8989 188.765 7.03396C188.54 7.13831 188.337 7.28256 188.166 7.4593L187.979 7.6641L187.428 7.12848L187.525 7.01033C187.609 6.91606 187.701 6.82908 187.801 6.75039C187.941 6.6265 188.093 6.51574 188.255 6.41957C188.448 6.30766 188.655 6.2203 188.871 6.15964C189.133 6.07755 189.406 6.03764 189.681 6.04149C189.99 6.03197 190.297 6.08365 190.584 6.19334C190.871 6.30304 191.132 6.46846 191.351 6.6795C191.567 6.88344 191.738 7.12863 191.853 7.39972C191.967 7.67081 192.023 7.96194 192.016 8.25486V11.9097H191.124V11.122L191.051 11.2165L190.824 11.4371C190.706 11.5376 190.578 11.6273 190.443 11.7049C190.274 11.8037 190.091 11.878 189.9 11.9254C189.676 11.9862 189.444 12.0154 189.211 12.0121C188.669 12.029 188.141 11.8493 187.728 11.508C187.543 11.3706 187.392 11.1944 187.287 10.9926C187.182 10.7907 187.125 10.5684 187.12 10.3422C187.11 10.13 187.145 9.91797 187.221 9.71899C187.298 9.52 187.415 9.33813 187.566 9.18432C187.928 8.88288 188.379 8.70086 188.855 8.66445L191.124 8.26274ZM190.589 10.7203C190.769 10.5373 190.909 10.3209 191.001 10.084C191.093 9.84719 191.135 9.59476 191.124 9.34185V8.97952L189.09 9.34185C188.352 9.47576 187.987 9.81446 187.979 10.358C187.979 10.4822 188.009 10.6048 188.067 10.7157C188.124 10.8266 188.208 10.9226 188.311 10.996C188.571 11.1817 188.889 11.2736 189.211 11.2559C189.466 11.264 189.721 11.2206 189.958 11.1284C190.195 11.0362 190.41 10.8973 190.589 10.7203Z" fill="#474746"/>
<path d="M194.188 6.71101C194.613 6.33828 195.172 6.14306 195.744 6.16751H198.265V11.9176H197.406V9.99562H195.679L194.455 11.9176H193.466L194.82 9.82233L194.682 9.77507C194.579 9.73371 194.481 9.68084 194.391 9.61754C194.249 9.5399 194.123 9.43857 194.018 9.31822C193.894 9.16608 193.795 8.99596 193.726 8.81411C193.628 8.58203 193.581 8.33244 193.588 8.08157C193.583 7.825 193.634 7.57035 193.738 7.33421C193.841 7.09807 193.994 6.88573 194.188 6.71101ZM195.744 6.94731C195.401 6.93015 195.064 7.04309 194.804 7.26238C194.693 7.36327 194.605 7.48531 194.545 7.62086C194.485 7.7564 194.454 7.90252 194.455 8.05006C194.453 8.19781 194.483 8.34438 194.543 8.48014C194.603 8.61589 194.692 8.73776 194.804 8.83774C195.063 9.0585 195.4 9.17165 195.744 9.15281H197.406V6.94731H195.744Z" fill="#474746"/>
<path d="M206.84 6.95519H203.444V11.9176H202.634V6.16751H207.748V11.9176H206.881L206.84 6.95519Z" fill="#474746"/>
<path d="M210.107 9.34185C210.136 9.85687 210.372 10.3402 210.763 10.6888C210.952 10.8712 211.176 11.0153 211.422 11.1126C211.668 11.21 211.932 11.2587 212.198 11.2559C212.557 11.2603 212.911 11.1763 213.227 11.0117C213.484 10.8999 213.714 10.7361 213.9 10.5312L214.111 10.3028L214.662 10.8384L214.557 10.9723C214.465 11.0745 214.364 11.1693 214.257 11.2559C214.104 11.3896 213.939 11.5083 213.762 11.6104C213.544 11.7359 213.309 11.8338 213.065 11.9018C212.785 11.9871 212.492 12.0296 212.198 12.0278C211.807 12.0307 211.42 11.9544 211.062 11.8039C210.703 11.6533 210.381 11.4318 210.115 11.1535C209.832 10.8746 209.609 10.5434 209.46 10.1794C209.312 9.8155 209.239 9.42624 209.248 9.03466C209.239 8.64374 209.311 8.25506 209.458 7.89128C209.606 7.5275 209.826 7.1959 210.107 6.9158C210.364 6.63953 210.678 6.4189 211.028 6.26827C211.379 6.11763 211.758 6.04036 212.141 6.04148C212.515 6.03004 212.888 6.09412 213.235 6.2297C213.583 6.36528 213.897 6.5694 214.159 6.82916C214.43 7.10295 214.641 7.42668 214.78 7.78117C214.919 8.13565 214.984 8.51368 214.97 8.89287L214.913 9.3261L210.107 9.34185ZM210.788 7.3569C210.412 7.68723 210.171 8.13698 210.107 8.62506H214.111C214.061 8.13287 213.831 7.67445 213.462 7.33327C213.287 7.16878 213.08 7.03955 212.854 6.95304C212.627 6.86653 212.385 6.82443 212.141 6.82916C211.891 6.82554 211.642 6.87033 211.41 6.96093C211.178 7.05153 210.966 7.18613 210.788 7.3569Z" fill="#474746"/>
<path d="M217.377 14.4302H216.518V6.16751H217.377V7.0891L217.466 6.9867C217.546 6.89657 217.633 6.81232 217.726 6.73464C218.009 6.46744 218.358 6.27494 218.739 6.17539C218.978 6.10197 219.226 6.06477 219.477 6.06512C219.853 6.06724 220.224 6.1478 220.565 6.30136C220.906 6.45492 221.209 6.67789 221.454 6.95519C221.999 7.52805 222.29 8.28635 222.265 9.06617C222.289 9.8457 221.998 10.6034 221.454 11.1771C221.208 11.4516 220.904 11.6716 220.563 11.8224C220.222 11.9732 219.851 12.0513 219.477 12.0515C219.227 12.0544 218.978 12.0198 218.739 11.9491C218.531 11.8918 218.332 11.807 218.147 11.697C218.001 11.6113 217.863 11.5138 217.734 11.4056C217.637 11.3271 217.547 11.2401 217.466 11.1456L217.377 11.0354V14.4302ZM218.026 10.5943C218.206 10.7976 218.428 10.9616 218.678 11.0757C218.928 11.1897 219.2 11.2511 219.477 11.2559C219.738 11.2494 219.995 11.1883 220.23 11.0769C220.465 10.9655 220.672 10.8062 220.838 10.61C221.243 10.1813 221.461 9.6165 221.446 9.03466C221.461 8.45281 221.243 7.88798 220.838 7.4593C220.674 7.26149 220.466 7.10114 220.231 6.98955C219.996 6.87795 219.738 6.81783 219.477 6.81341C219.2 6.81822 218.928 6.87964 218.678 6.99366C218.428 7.10768 218.206 7.27173 218.026 7.47506C217.611 7.89095 217.379 8.44749 217.379 9.02678C217.379 9.60607 217.611 10.1626 218.026 10.5785V10.5943Z" fill="#474746"/>
<path d="M224.283 9.34185C224.313 9.85687 224.548 10.3402 224.94 10.6888C225.128 10.8712 225.352 11.0153 225.598 11.1126C225.844 11.21 226.108 11.2587 226.374 11.2559C226.733 11.2603 227.087 11.1763 227.404 11.0117C227.66 10.8999 227.89 10.7361 228.076 10.5312L228.287 10.3028L228.838 10.8384L228.733 10.9723C228.641 11.0745 228.541 11.1693 228.433 11.2559C228.281 11.3896 228.115 11.5083 227.939 11.6104C227.72 11.7359 227.486 11.8338 227.241 11.9018C226.961 11.9871 226.668 12.0296 226.374 12.0278C225.984 12.0307 225.597 11.9544 225.238 11.8039C224.879 11.6533 224.557 11.4318 224.291 11.1535C224.008 10.8746 223.786 10.5434 223.637 10.1794C223.488 9.8155 223.415 9.42624 223.424 9.03466C223.415 8.64374 223.487 8.25506 223.634 7.89128C223.782 7.5275 224.002 7.1959 224.283 6.9158C224.54 6.63953 224.854 6.4189 225.205 6.26827C225.555 6.11763 225.934 6.04036 226.317 6.04148C226.692 6.03004 227.064 6.09412 227.412 6.2297C227.759 6.36528 228.074 6.5694 228.336 6.82916C228.606 7.10295 228.817 7.42668 228.956 7.78117C229.095 8.13565 229.16 8.51368 229.146 8.89287L229.09 9.3261L224.283 9.34185ZM224.964 7.3569C224.589 7.68723 224.347 8.13698 224.283 8.62506H228.287C228.237 8.13287 228.007 7.67445 227.639 7.33327C227.463 7.16878 227.257 7.03955 227.03 6.95304C226.803 6.86653 226.561 6.82443 226.317 6.82916C226.067 6.82554 225.819 6.87033 225.586 6.96093C225.354 7.05153 225.142 7.18613 224.964 7.3569Z" fill="#474746"/>
<path d="M231.553 14.4302H230.694V6.16751H231.553V7.08909L231.643 6.9867C231.723 6.89657 231.809 6.81232 231.902 6.73464C232.032 6.61673 232.173 6.51122 232.324 6.41957C232.508 6.31731 232.704 6.23541 232.907 6.17539C233.146 6.10361 233.395 6.06645 233.645 6.06511C234.022 6.06713 234.394 6.14761 234.737 6.30114C235.079 6.45467 235.384 6.67768 235.63 6.95519C236.19 7.52177 236.496 8.28082 236.482 9.06616C236.495 9.8512 236.189 10.6096 235.63 11.1771C235.383 11.4522 235.078 11.6725 234.735 11.8233C234.392 11.9741 234.021 12.0519 233.645 12.0515C233.398 12.0535 233.152 12.019 232.915 11.9491C232.707 11.8918 232.508 11.807 232.324 11.697C232.178 11.6113 232.039 11.5138 231.91 11.4056C231.813 11.3271 231.723 11.2401 231.643 11.1456L231.553 11.0354V14.4302ZM232.202 10.5943C232.381 10.797 232.602 10.9607 232.851 11.0747C233.099 11.1888 233.37 11.2505 233.645 11.2559C233.907 11.2505 234.166 11.19 234.402 11.0785C234.639 10.967 234.848 10.8072 235.014 10.61C235.42 10.1813 235.638 9.6165 235.622 9.03466C235.638 8.45281 235.42 7.88798 235.014 7.4593C234.849 7.26088 234.64 7.10022 234.403 6.98862C234.167 6.87703 233.908 6.81722 233.645 6.81341C233.37 6.81882 233.099 6.88056 232.851 6.99457C232.602 7.10859 232.381 7.27232 232.202 7.47506C231.787 7.89095 231.555 8.44749 231.555 9.02678C231.555 9.60607 231.787 10.1626 232.202 10.5785V10.5943Z" fill="#474746"/>
<path d="M241.604 8.26273C241.612 8.07122 241.579 7.88025 241.508 7.70148C241.437 7.52272 241.329 7.35991 241.191 7.223C241.048 7.09215 240.88 6.99 240.696 6.92241C240.513 6.85483 240.317 6.82314 240.121 6.82916C239.814 6.8296 239.511 6.89973 239.237 7.03396C239.016 7.1402 238.815 7.28426 238.646 7.4593L238.459 7.6641L237.9 7.12848L238.005 7.01033C238.087 6.91403 238.179 6.82686 238.281 6.75039C238.418 6.62661 238.568 6.51583 238.727 6.41957C238.921 6.30912 239.127 6.22184 239.343 6.15963C239.605 6.07875 239.878 6.03887 240.153 6.04148C240.463 6.03273 240.771 6.08472 241.059 6.19434C241.347 6.30397 241.61 6.46898 241.831 6.6795C242.048 6.88343 242.218 7.12863 242.333 7.39972C242.447 7.67081 242.503 7.96194 242.496 8.25486V11.9097H241.637V11.122L241.564 11.2165L241.329 11.4371C241.212 11.5394 241.084 11.6292 240.948 11.7049C240.781 11.8024 240.601 11.8767 240.413 11.9254C240.188 11.9857 239.956 12.0149 239.724 12.0121C239.179 12.0295 238.648 11.8498 238.232 11.508C238.048 11.3702 237.899 11.1937 237.795 10.9919C237.691 10.79 237.636 10.5679 237.633 10.3422C237.622 10.1305 237.655 9.91885 237.73 9.7199C237.805 9.52094 237.921 9.33878 238.07 9.18431C238.426 8.86426 238.877 8.66282 239.359 8.60931L241.604 8.26273ZM241.061 10.7203C241.244 10.5387 241.386 10.3228 241.479 10.0857C241.573 9.84862 241.615 9.59547 241.604 9.34185V8.97952L239.57 9.34185C238.832 9.47576 238.459 9.81446 238.459 10.358C238.458 10.4816 238.487 10.6037 238.543 10.7146C238.599 10.8254 238.682 10.9218 238.784 10.996C239.046 11.1828 239.367 11.2748 239.691 11.2559C239.945 11.2639 240.198 11.2204 240.434 11.1282C240.67 11.0359 240.884 10.897 241.061 10.7203Z" fill="#474746"/>
<path d="M249.199 11.2008C248.929 11.4613 248.607 11.6655 248.253 11.8009C247.899 11.9363 247.52 12.0002 247.14 11.9885C246.734 12.0001 246.33 11.9194 245.961 11.7525C245.592 11.5857 245.269 11.3374 245.017 11.0275C244.424 10.2343 244.137 9.26414 244.206 8.28637C244.206 5.66078 245.211 4.16419 247.221 3.79661C247.617 3.73439 248.007 3.64221 248.388 3.52092C248.627 3.45481 248.855 3.35952 249.069 3.23736L249.239 3.15071L249.669 3.81236C248.956 4.23557 248.157 4.50424 247.327 4.60004C246.708 4.71393 246.15 5.03774 245.754 5.51374C245.324 6.0632 245.099 6.73782 245.114 7.4278C245.136 7.38279 245.163 7.34048 245.195 7.30177C245.266 7.20435 245.347 7.11457 245.438 7.03396C245.715 6.74577 246.064 6.53153 246.451 6.4117C246.696 6.33112 246.954 6.29377 247.213 6.30142C247.583 6.29135 247.952 6.35616 248.295 6.49175C248.638 6.62735 248.949 6.83076 249.207 7.0891C249.474 7.36058 249.682 7.68054 249.821 8.03063C249.961 8.38071 250.027 8.75403 250.017 9.12918C250.034 9.51049 249.969 9.891 249.829 10.2473C249.688 10.6035 249.474 10.928 249.199 11.2008ZM245.705 10.6494C245.888 10.8415 246.11 10.9946 246.357 11.099C246.604 11.2034 246.871 11.2568 247.14 11.2559C247.41 11.2583 247.677 11.2055 247.924 11.101C248.171 10.9965 248.393 10.8427 248.575 10.6494C248.773 10.4533 248.928 10.2203 249.031 9.96452C249.134 9.7087 249.183 9.43529 249.175 9.16069C249.183 8.88608 249.134 8.61267 249.031 8.35686C248.928 8.10104 248.773 7.86809 248.575 7.67198C248.391 7.48301 248.168 7.33354 247.921 7.23316C247.674 7.13278 247.408 7.08371 247.14 7.0891C246.871 7.08818 246.604 7.14161 246.357 7.24601C246.11 7.35042 245.888 7.50351 245.705 7.69561C245.51 7.89316 245.357 8.12653 245.256 8.38213C245.154 8.63773 245.106 8.91043 245.114 9.18432C245.104 9.72946 245.317 10.2562 245.705 10.6494Z" fill="#474746"/>
<path d="M252.076 6.91581C252.354 6.63881 252.686 6.41866 253.053 6.26835C253.42 6.11804 253.814 6.04061 254.212 6.04061C254.61 6.04061 255.004 6.11804 255.371 6.26835C255.738 6.41866 256.07 6.63881 256.348 6.91581C256.635 7.1938 256.862 7.52561 257.014 7.89116C257.166 8.25672 257.24 8.6484 257.231 9.04253C257.238 9.43642 257.163 9.82759 257.011 10.1929C256.859 10.5582 256.634 10.8902 256.348 11.1693C255.781 11.719 255.013 12.0278 254.212 12.0278C253.411 12.0278 252.643 11.719 252.076 11.1693C251.789 10.8913 251.562 10.5595 251.41 10.1939C251.258 9.82835 251.184 9.43666 251.193 9.04253C251.182 8.64816 251.256 8.25593 251.408 7.89012C251.56 7.5243 251.787 7.19269 252.076 6.91581ZM255.732 7.46718C255.536 7.26623 255.301 7.10615 255.039 6.99675C254.778 6.88734 254.497 6.83091 254.212 6.83091C253.927 6.83091 253.646 6.88734 253.385 6.99675C253.123 7.10615 252.888 7.26623 252.692 7.46718C252.482 7.67423 252.316 7.92053 252.206 8.19126C252.096 8.46199 252.044 8.75156 252.052 9.04253C252.045 9.3334 252.098 9.6227 252.208 9.89331C252.318 10.1639 252.483 10.4103 252.692 10.6179C252.886 10.8209 253.122 10.9828 253.383 11.0936C253.645 11.2043 253.927 11.2614 254.212 11.2614C254.497 11.2614 254.779 11.2043 255.041 11.0936C255.302 10.9828 255.538 10.8209 255.732 10.6179C255.939 10.4089 256.102 10.1621 256.21 9.89167C256.319 9.62128 256.371 9.33268 256.364 9.04253C256.375 8.75397 256.326 8.46622 256.222 8.19586C256.118 7.92549 255.959 7.67785 255.756 7.46718H255.732Z" fill="#474746"/>
<path d="M258.058 6.16751H263.108V6.95519H260.992V11.9254H260.182V6.94731H258.09L258.058 6.16751Z" fill="#474746"/>
<path d="M265.207 11.9176H264.348V6.16751H265.207V9.21582L268.157 6.16751H269.211L266.933 8.53054L269.462 11.9491H268.473L266.382 9.13705L265.207 10.3343V11.9176Z" fill="#474746"/>
<path d="M274.147 8.26273C274.155 8.07122 274.122 7.88025 274.051 7.70148C273.98 7.52272 273.872 7.35991 273.734 7.223C273.591 7.09215 273.423 6.99 273.239 6.92241C273.056 6.85483 272.86 6.82314 272.664 6.82916C272.357 6.8296 272.054 6.89973 271.78 7.03396C271.559 7.1402 271.358 7.28426 271.189 7.4593L271.002 7.6641L270.443 7.12848L270.548 7.01033C270.63 6.91403 270.722 6.82686 270.824 6.75039C270.961 6.62661 271.111 6.51583 271.27 6.41957C271.463 6.30912 271.67 6.22184 271.886 6.15963C272.148 6.07809 272.421 6.03819 272.696 6.04148C273.006 6.03273 273.314 6.08472 273.602 6.19434C273.89 6.30397 274.153 6.46898 274.374 6.6795C274.591 6.88343 274.761 7.12863 274.876 7.39972C274.99 7.67081 275.046 7.96194 275.039 8.25486V11.9097H274.18V11.122C274.156 11.1561 274.129 11.1878 274.098 11.2165L273.872 11.4371C273.755 11.5394 273.627 11.6292 273.491 11.7049C273.324 11.8024 273.144 11.8767 272.956 11.9254C272.731 11.9857 272.499 12.0149 272.267 12.0121C271.722 12.0295 271.191 11.8498 270.775 11.508C270.59 11.3706 270.44 11.1944 270.334 10.9926C270.229 10.7907 270.172 10.5684 270.167 10.3422C270.157 10.13 270.192 9.91797 270.268 9.71899C270.345 9.52 270.462 9.33813 270.613 9.18431C270.967 8.86576 271.415 8.66444 271.894 8.60931L274.147 8.26273ZM273.604 10.7203C273.787 10.5387 273.929 10.3228 274.022 10.0857C274.116 9.84862 274.158 9.59547 274.147 9.34185V8.97952L272.113 9.34185C271.375 9.47576 271.002 9.81446 271.002 10.358C271.001 10.4816 271.03 10.6037 271.086 10.7146C271.142 10.8254 271.225 10.9218 271.326 10.996C271.589 11.1828 271.91 11.2748 272.234 11.2559C272.488 11.2639 272.741 11.2204 272.977 11.1282C273.213 11.0359 273.426 10.897 273.604 10.7203Z" fill="#474746"/>
<path d="M284.806 13.3905H283.938V11.9176H279.197V13.3905H278.338V11.1378H278.759L278.873 11.0196C278.967 10.8964 279.054 10.7675 279.132 10.6336C279.258 10.4286 279.364 10.2123 279.448 9.98775C279.563 9.68602 279.649 9.37497 279.707 9.05829C279.78 8.65785 279.815 8.25186 279.813 7.84526V6.16751H283.865V11.1378H284.798L284.806 13.3905ZM280.672 7.87677C280.678 8.48611 280.596 9.09326 280.429 9.68055C280.324 10.0882 280.157 10.4785 279.934 10.8384L279.691 11.1693H283.014V6.94731H280.672V7.87677Z" fill="#474746"/>
<path d="M287.018 14.4302H286.159V6.16751H287.018V7.08909L287.108 6.9867C287.187 6.89657 287.274 6.81232 287.367 6.73464C287.498 6.61858 287.639 6.5132 287.788 6.41957C287.975 6.31602 288.174 6.23407 288.38 6.17539C288.619 6.10304 288.868 6.06587 289.118 6.06511C289.494 6.06723 289.865 6.1478 290.206 6.30136C290.547 6.45491 290.851 6.67788 291.095 6.95519C291.655 7.52177 291.961 8.28082 291.946 9.06616C291.968 9.84528 291.677 10.6021 291.136 11.1771C290.887 11.451 290.582 11.6705 290.239 11.8212C289.897 11.9719 289.526 12.0504 289.15 12.0515C288.682 12.0501 288.224 11.9277 287.821 11.697C287.676 11.6094 287.538 11.512 287.407 11.4056C287.31 11.3271 287.221 11.2401 287.14 11.1456L287.051 11.0354L287.018 14.4302ZM287.667 10.5943C287.847 10.7976 288.069 10.9616 288.32 11.0757C288.57 11.1897 288.842 11.2511 289.118 11.2559C289.38 11.2495 289.638 11.1885 289.875 11.0771C290.111 10.9657 290.32 10.8064 290.487 10.61C290.887 10.1784 291.101 9.61488 291.087 9.03466C291.101 8.45443 290.887 7.89091 290.487 7.4593C290.321 7.26129 290.113 7.10091 289.876 6.98935C289.639 6.8778 289.381 6.81775 289.118 6.81341C288.842 6.81822 288.57 6.87964 288.32 6.99366C288.069 7.10768 287.847 7.27172 287.667 7.47506C287.252 7.89095 287.02 8.44749 287.02 9.02678C287.02 9.60607 287.252 10.1626 287.667 10.5785V10.5943Z" fill="#474746"/>
<path d="M293.924 9.34185C293.954 9.85687 294.189 10.3402 294.581 10.6888C294.77 10.8705 294.994 11.0141 295.24 11.1114C295.486 11.2087 295.75 11.2578 296.015 11.2559C296.374 11.2603 296.728 11.1763 297.045 11.0117C297.302 10.8999 297.531 10.7361 297.717 10.5312L297.928 10.3028L298.487 10.8384L298.382 10.9723C298.287 11.0739 298.184 11.1687 298.074 11.2559C297.922 11.3896 297.756 11.5083 297.58 11.6104C297.363 11.7345 297.132 11.8324 296.891 11.9018C296.607 11.9871 296.312 12.0296 296.015 12.0278C295.626 12.0315 295.24 11.9556 294.882 11.805C294.525 11.6544 294.204 11.4324 293.94 11.1535C293.655 10.876 293.43 10.5453 293.28 10.1811C293.129 9.81696 293.056 9.42697 293.065 9.03466C293.056 8.64374 293.128 8.25506 293.275 7.89128C293.423 7.5275 293.643 7.1959 293.924 6.9158C294.181 6.63953 294.495 6.4189 294.846 6.26827C295.196 6.11763 295.575 6.04036 295.959 6.04148C296.333 6.03004 296.705 6.09412 297.053 6.2297C297.4 6.36528 297.715 6.5694 297.977 6.82916C298.247 7.10295 298.458 7.42668 298.597 7.78117C298.737 8.13565 298.801 8.51368 298.787 8.89287L298.731 9.3261L293.924 9.34185ZM294.605 7.3569C294.23 7.68723 293.988 8.13698 293.924 8.62506H297.928C297.878 8.13469 297.651 7.67729 297.288 7.33327C297.111 7.16854 296.903 7.03923 296.675 6.95273C296.447 6.86624 296.203 6.82425 295.959 6.82916C295.708 6.82554 295.46 6.87033 295.227 6.96093C294.995 7.05153 294.783 7.18613 294.605 7.3569Z" fill="#474746"/>
<path d="M303.043 6.16751C303.517 6.14393 303.984 6.2959 304.348 6.59286C304.505 6.72578 304.63 6.89067 304.714 7.0758C304.798 7.26094 304.839 7.4618 304.834 7.6641C304.836 7.89962 304.771 8.13114 304.647 8.33362C304.56 8.50017 304.432 8.64346 304.275 8.75109L304.096 8.86137L304.194 8.90075C304.279 8.93379 304.361 8.97607 304.437 9.02678C304.55 9.08765 304.652 9.16766 304.737 9.26308C304.841 9.37783 304.921 9.51173 304.972 9.65692C305.046 9.84258 305.082 10.0407 305.077 10.2398C305.09 10.4659 305.052 10.692 304.967 10.9027C304.882 11.1133 304.75 11.3037 304.583 11.4607C304.192 11.7869 303.686 11.951 303.172 11.9176H300.335V6.16751H303.043ZM303.043 6.95519H301.195V8.53054H303.043C303.667 8.53054 303.975 8.27061 303.975 7.74287C303.975 7.21512 303.667 6.94731 303.043 6.94731V6.95519ZM301.195 9.21582V11.1378H303.14C303.285 11.1496 303.432 11.1334 303.571 11.0902C303.71 11.0469 303.839 10.9774 303.95 10.8857C304.043 10.792 304.115 10.6806 304.161 10.5586C304.207 10.4365 304.226 10.3065 304.218 10.1768C304.227 10.0446 304.208 9.912 304.162 9.78729C304.116 9.66258 304.044 9.54847 303.95 9.45213C303.839 9.36038 303.71 9.2909 303.571 9.24764C303.432 9.20439 303.285 9.18823 303.14 9.20007L301.195 9.21582Z" fill="#474746"/>
<path d="M307.193 9.34185C307.231 9.85744 307.467 10.3402 307.855 10.6946C308.242 11.0491 308.752 11.2494 309.284 11.2559C309.643 11.2593 309.996 11.1754 310.313 11.0117C310.569 10.8979 310.798 10.7344 310.986 10.5312L311.197 10.3028L311.748 10.8384L311.642 10.9723C311.548 11.0725 311.448 11.1671 311.343 11.2559C311.187 11.3897 311.019 11.5084 310.84 11.6104C310.624 11.736 310.393 11.8339 310.151 11.9018C309.87 11.9865 309.578 12.029 309.284 12.0278C308.892 12.0328 308.503 11.9575 308.143 11.8068C307.782 11.6562 307.459 11.4336 307.193 11.1535C306.907 10.876 306.682 10.5453 306.532 10.1811C306.381 9.81696 306.308 9.42697 306.317 9.03466C306.311 8.6427 306.385 8.25349 306.536 7.88971C306.686 7.52593 306.909 7.19486 307.193 6.9158C307.45 6.64529 307.761 6.42846 308.107 6.27847C308.454 6.12849 308.828 6.04849 309.207 6.04333C309.586 6.03817 309.962 6.10797 310.312 6.24847C310.663 6.38898 310.98 6.59726 311.245 6.86067C311.514 7.13548 311.724 7.45939 311.863 7.81362C312.002 8.16786 312.068 8.5454 312.056 8.92438L311.991 9.3576L307.193 9.34185ZM307.865 7.3569C307.487 7.70013 307.248 8.16424 307.193 8.66445H311.197C311.143 8.17321 310.914 7.71589 310.548 7.37266C310.372 7.20756 310.164 7.07803 309.935 6.99151C309.707 6.90499 309.464 6.8632 309.219 6.86854C308.969 6.85847 308.719 6.89641 308.484 6.98021C308.249 7.06401 308.033 7.19201 307.849 7.3569H307.865Z" fill="#474746"/>
<path d="M314.025 6.91581C314.291 6.63747 314.614 6.41598 314.972 6.26544C315.331 6.11491 315.718 6.03864 316.108 6.04149C316.555 6.0406 316.997 6.14035 317.397 6.33293C317.715 6.47532 318.006 6.66982 318.256 6.90793L318.516 7.18362L317.892 7.78225L317.819 7.67985C317.753 7.59973 317.683 7.52346 317.608 7.45143C317.501 7.33906 317.381 7.23866 317.251 7.15211C317.095 7.05568 316.926 6.98141 316.749 6.93156C316.543 6.86131 316.326 6.82665 316.108 6.82916C315.83 6.82868 315.555 6.88526 315.301 6.99521C315.047 7.10515 314.819 7.26598 314.633 7.46718C314.221 7.89235 314 8.45888 314.017 9.04254C314.002 9.6259 314.223 10.1918 314.633 10.6179C314.819 10.8191 315.047 10.9799 315.301 11.0899C315.555 11.1998 315.83 11.2564 316.108 11.2559C316.451 11.2572 316.789 11.1731 317.089 11.0117C317.344 10.8957 317.572 10.7325 317.762 10.5312L317.956 10.3028L318.572 10.8384C318.539 10.886 318.501 10.9308 318.459 10.9723C318.36 11.0734 318.254 11.1681 318.143 11.2559C317.988 11.3897 317.819 11.5084 317.64 11.6104C317.427 11.7347 317.198 11.8326 316.96 11.9018C316.447 12.0569 315.901 12.069 315.382 11.9366C314.863 11.8043 314.393 11.533 314.025 11.1535C313.74 10.876 313.515 10.5453 313.365 10.1811C313.214 9.81696 313.141 9.42697 313.15 9.03466C313.143 8.64252 313.216 8.25293 313.367 7.88897C313.517 7.525 313.741 7.19408 314.025 6.91581Z" fill="#474746"/>
<path d="M325.105 6.16751V11.9176H324.214V7.60896L320.639 11.9176H319.91V6.16751H320.769V10.4761L324.344 6.16751H325.105Z" fill="#474746"/>
<path d="M331.33 9.39699H327.942V11.9176H327.083V6.16751H327.942V8.66445H331.33V6.16751H332.198V11.9176H331.33V9.39699Z" fill="#474746"/>
<path d="M338.09 11.3898C337.657 11.7585 337.093 11.9479 336.518 11.9176H334.167V6.16751H335.026V8.08157H336.51C337.084 8.05286 337.648 8.24206 338.082 8.60931C338.276 8.78779 338.429 9.00454 338.529 9.24502C338.63 9.48549 338.676 9.7441 338.666 10.0035C338.676 10.2609 338.63 10.5175 338.53 10.7565C338.431 10.9954 338.281 11.2112 338.09 11.3898ZM336.518 11.1378C336.86 11.1524 337.194 11.0365 337.45 10.8148C337.561 10.7145 337.65 10.5926 337.71 10.4569C337.77 10.3212 337.8 10.1748 337.798 10.0271C337.799 9.87959 337.769 9.73347 337.709 9.59793C337.649 9.46238 337.561 9.34034 337.45 9.23945C337.189 9.02298 336.853 8.91045 336.51 8.92438H335.026V11.2008L336.518 11.1378ZM340.635 11.9254H339.768V6.16751H340.635V11.9254Z" fill="#474746"/>
<path d="M160.486 37.2886L156.174 31.1526L151.829 37.2886H147.452L153.71 28.6872L147.842 20.519H152.21L156.174 26.2533L160.072 20.519H164.498L158.622 28.6636L164.879 37.328L160.486 37.2886Z" fill="#474746"/>
<path d="M173.933 37.2886V36.0284C173.426 36.5512 172.811 36.9624 172.127 37.2342C171.443 37.506 170.707 37.632 169.969 37.6037C169.41 37.627 168.852 37.5406 168.328 37.3495C167.803 37.1585 167.324 36.8668 166.919 36.4919C166.513 36.1169 166.19 35.6664 165.967 35.1672C165.745 34.6681 165.628 34.1305 165.625 33.5866C165.625 30.743 167.983 29.6482 169.969 29.6482C170.7 29.6068 171.432 29.7175 172.115 29.9729C172.799 30.2282 173.418 30.6224 173.933 31.129V29.4985C173.933 28.2619 172.846 27.4584 171.185 27.4584C169.825 27.4623 168.518 27.9757 167.537 28.892L166.297 26.781C167.818 25.5176 169.76 24.837 171.76 24.867C174.605 24.867 177.215 25.9776 177.215 29.467V37.3438L173.933 37.2886ZM173.933 34.3742V32.8619C173.602 32.5048 173.192 32.2245 172.735 32.0418C172.278 31.8591 171.784 31.7786 171.29 31.8064C170.002 31.8064 168.94 32.4602 168.94 33.6417C168.94 34.8232 170.002 35.4297 171.29 35.4297C171.784 35.4575 172.278 35.3771 172.735 35.1944C173.192 35.0117 173.602 34.7314 173.933 34.3742Z" fill="#474746"/>
<path d="M183.756 35.729V41.9123H180.474V25.1505H183.756V26.6786C184.212 26.106 184.797 25.6428 185.466 25.3246C186.134 25.0064 186.87 24.8417 187.614 24.8433C190.816 24.8433 193.142 27.1591 193.142 31.2078C193.142 35.2564 190.816 37.588 187.614 37.588C186.866 37.5941 186.127 37.4291 185.457 37.1061C184.787 36.7832 184.204 36.3114 183.756 35.729ZM189.73 31.2078C189.73 29.1204 188.466 27.6869 186.577 27.6869C186.031 27.6983 185.494 27.8279 185.006 28.0664C184.518 28.3049 184.091 28.6461 183.756 29.0653V33.366C184.095 33.7822 184.522 34.1217 185.009 34.3611C185.497 34.6005 186.031 34.734 186.577 34.7523C188.466 34.7523 189.73 33.3187 189.73 31.2078Z" fill="#474746"/>
<path d="M194.747 31.2078C194.807 29.5431 195.53 27.966 196.763 26.809C197.996 25.652 199.643 25.0053 201.357 25.0053C203.071 25.0053 204.718 25.652 205.951 26.809C207.184 27.966 207.907 29.5431 207.967 31.2078C207.907 32.8725 207.184 34.4495 205.951 35.6065C204.718 36.7636 203.071 37.4102 201.357 37.4102C199.643 37.4102 197.996 36.7636 196.763 35.6065C195.53 34.4495 194.807 32.8725 194.747 31.2078ZM204.555 31.2078C204.555 29.3173 203.387 27.6869 201.312 27.6869C199.237 27.6869 198.127 29.3173 198.127 31.2078C198.127 33.0982 199.27 34.7523 201.312 34.7523C203.355 34.7523 204.555 33.0824 204.555 31.2078Z" fill="#474746"/>
<path d="M210.391 37.2886V25.1505H218.309C220.846 25.1505 222.135 26.6314 222.135 28.3012C222.151 28.9255 221.951 29.5368 221.568 30.0379C221.184 30.5389 220.639 30.9008 220.02 31.066C220.704 31.2252 221.312 31.606 221.743 32.1458C222.175 32.6855 222.405 33.352 222.395 34.0355C222.395 35.8708 221.049 37.328 218.544 37.328L210.391 37.2886ZM218.844 28.7896C218.846 28.6447 218.817 28.501 218.757 28.368C218.698 28.235 218.61 28.1159 218.5 28.0183C218.389 27.9208 218.259 27.8471 218.117 27.8022C217.976 27.7573 217.825 27.7421 217.677 27.7577H213.722V29.7978H217.677C217.823 29.812 217.971 29.7966 218.11 29.7526C218.25 29.7087 218.378 29.637 218.488 29.5423C218.598 29.4476 218.686 29.3318 218.747 29.2022C218.809 29.0727 218.842 28.9322 218.844 28.7896ZM219.071 33.5157C219.07 33.3573 219.034 33.2009 218.967 33.0565C218.9 32.9121 218.803 32.7828 218.682 32.6769C218.561 32.5709 218.418 32.4907 218.263 32.4412C218.109 32.3917 217.945 32.374 217.783 32.3893H213.73V34.6578H217.783C217.942 34.6734 218.103 34.656 218.256 34.6066C218.408 34.5572 218.548 34.477 218.665 34.3713C218.783 34.2656 218.877 34.1368 218.94 33.9934C219.003 33.85 219.034 33.6952 219.031 33.5393L219.071 33.5157Z" fill="#474746"/>
<path d="M224.745 31.2078C224.715 30.3581 224.866 29.5116 225.19 28.7215C225.513 27.9314 226.001 27.2149 226.623 26.6171C227.245 26.0192 227.987 25.553 228.804 25.2477C229.62 24.9425 230.493 24.8048 231.367 24.8433C232.312 24.7892 233.257 24.9605 234.119 25.3421C234.981 25.7237 235.733 26.3042 236.311 27.0331L234.163 28.9944C233.875 28.5748 233.481 28.2342 233.018 28.0052C232.555 27.7763 232.04 27.6667 231.521 27.6869C231.054 27.6786 230.589 27.7658 230.159 27.9429C229.728 28.1201 229.341 28.3831 229.021 28.715C228.702 29.0469 228.458 29.4403 228.305 29.8697C228.152 30.2991 228.093 30.755 228.133 31.2078C228.133 33.3187 229.535 34.7523 231.521 34.7523C232.038 34.761 232.549 34.6463 233.01 34.4183C233.471 34.1903 233.867 33.8561 234.163 33.4448L236.311 35.3746C235.739 36.1114 234.988 36.6991 234.126 37.0853C233.263 37.4715 232.315 37.6442 231.367 37.588C230.492 37.6255 229.618 37.4865 228.801 37.1799C227.984 36.8732 227.241 36.4056 226.619 35.8062C225.997 35.2069 225.51 34.489 225.187 33.6976C224.864 32.9062 224.714 32.0585 224.745 31.2078Z" fill="#474746"/>
<path d="M246.548 37.2886L243.241 32.6098L241.742 34.1852V37.3359H238.451V25.1505H241.742V30.554L246.475 25.1505H250.528L245.584 30.6643L250.682 37.3044L246.548 37.2886Z" fill="#474746"/>
<path d="M252.287 37.2886V25.1505H255.578V32.4838L260.725 25.1505H264.032V37.2886H260.749V29.6718L255.448 37.2886H252.287Z" fill="#474746"/>
<path d="M267.29 37.2886V25.1505H270.573V32.4838L275.72 25.1505H279.035V37.2886H275.744V29.6718L270.443 37.2886H267.29ZM273.158 23.8981C272.276 23.8994 271.406 23.7006 270.616 23.3178C269.827 22.9349 269.14 22.3785 268.611 21.6926L270.054 20.5111C270.405 20.9907 270.868 21.3817 271.406 21.6516C271.944 21.9214 272.541 22.0622 273.146 22.0622C273.751 22.0622 274.348 21.9214 274.886 21.6516C275.424 21.3817 275.888 20.9907 276.238 20.5111L277.689 21.6926C277.169 22.3893 276.487 22.956 275.698 23.3463C274.909 23.7366 274.036 23.9392 273.15 23.9375L273.158 23.8981Z" fill="#474746"/>
<path d="M287.951 34.4215C289.709 34.1931 290.698 33.5157 291.241 29.0968L292.246 20.519H304.51V34.1458H306.058V40.3763H302.386V37.2886H291.622V40.3763H287.951V34.4215ZM292.814 34.1458H300.83V23.6303H295.578L294.913 29.3095C294.629 31.6095 293.876 33.1612 292.789 34.1458H292.814Z" fill="#474746"/>
<path d="M307.379 28.9156C307.344 27.7618 307.553 26.6132 307.994 25.5412C308.434 24.4692 309.097 23.4968 309.941 22.6842C310.785 21.8716 311.791 21.2364 312.898 20.8178C314.005 20.3993 315.189 20.2064 316.376 20.2512C321.604 20.2512 325.405 23.8745 325.405 28.9156C325.405 33.9568 321.604 37.5801 316.376 37.5801C315.189 37.626 314.004 37.434 312.897 37.0158C311.789 36.5977 310.782 35.9625 309.938 35.1497C309.094 34.3369 308.431 33.3639 307.991 32.2914C307.551 31.2189 307.342 30.0698 307.379 28.9156ZM321.628 28.9156C321.628 25.7649 319.561 23.4019 316.376 23.4019C313.191 23.4019 311.148 25.7649 311.148 28.9156C311.148 32.0663 313.199 34.4294 316.376 34.4294C319.553 34.4294 321.628 32.0348 321.628 28.9156Z" fill="#474746"/>
<path d="M326.799 34.902L328.712 32.5389C330.094 33.7561 331.889 34.4348 333.754 34.4451C336.031 34.4451 337.353 33.5629 337.353 32.3105C337.353 31.0581 336.137 30.3728 333.551 30.3728H330.058V27.2221H333.551C335.594 27.2221 337.069 26.6707 337.069 25.442C337.069 24.2132 335.513 23.457 333.551 23.457C331.821 23.4433 330.149 24.0618 328.866 25.1899L327.035 22.9529C327.927 22.0595 329.004 21.3587 330.193 20.8959C331.383 20.4332 332.66 20.2189 333.94 20.2669C337.993 20.2669 340.773 22.0313 340.773 24.8197C340.773 26.9307 338.909 28.317 337.02 28.6399C338.755 28.8132 341.032 30.1523 341.032 32.665C341.032 35.5557 338.058 37.588 333.94 37.588C330.698 37.588 328.064 36.4064 326.799 34.902Z" fill="#474746"/>
<path d="M128.875 30.0971C128.875 30.0105 128.875 29.916 128.875 29.8215C128.875 29.7269 128.875 29.53 128.834 29.3804C128.794 29.2307 128.834 29.081 128.786 28.9314C128.737 28.7817 128.737 28.7266 128.721 28.6242C128.664 28.2697 128.591 27.9153 128.502 27.5687C128.462 27.3797 128.413 27.1906 128.364 27.0016C128.251 26.6216 128.116 26.2481 127.959 25.8831C127.919 25.7728 127.886 25.6546 127.846 25.5522L127.797 25.4577C127.797 25.3868 127.724 25.3238 127.692 25.2529C127.659 25.182 127.521 24.8906 127.424 24.7173C127.327 24.544 127.205 24.3471 127.092 24.1738C126.995 24.0242 126.897 23.8824 126.792 23.7406L126.5 23.3783L126.265 23.1183C126.176 23.0238 126.087 22.9372 125.989 22.8505L125.722 22.6063L125.446 22.3858L125.301 22.2834L125.195 22.2046L124.911 22.0235L124.612 21.8502L124.287 21.6926L124.133 21.6217V21.4484L124.425 21.22C124.595 21.0625 124.766 20.9049 124.928 20.7395L125.001 20.6608L125.074 20.5741L125.309 20.3063L125.625 19.9046C125.673 19.8337 125.714 19.7628 125.763 19.6998L125.811 19.621C125.845 19.5822 125.875 19.54 125.9 19.495C125.989 19.3611 126.071 19.2272 126.152 19.0933L126.379 18.6758C126.389 18.6481 126.402 18.6217 126.419 18.5971C126.416 18.5761 126.416 18.555 126.419 18.534C126.419 18.4395 126.508 18.3529 126.549 18.2584C126.589 18.1638 126.687 17.9669 126.743 17.8173C126.8 17.6676 126.857 17.5494 126.905 17.4155C126.962 17.258 127.019 17.1005 127.068 16.9429C127.116 16.7854 127.173 16.62 127.222 16.4546L127.27 16.2655C127.27 16.2655 127.27 16.2025 127.27 16.1631C127.27 16.1237 127.27 16.0214 127.327 15.9426C127.384 15.8638 127.416 15.5881 127.448 15.4148C127.481 15.2416 127.505 15.1549 127.53 15.0289C127.526 15.0001 127.526 14.971 127.53 14.9422C127.526 14.9161 127.526 14.8896 127.53 14.8635C127.53 14.6665 127.586 14.4775 127.611 14.2806C127.635 14.0837 127.651 13.9419 127.667 13.7765C127.671 13.7583 127.671 13.7395 127.667 13.7213C127.667 13.5087 127.667 13.3039 127.708 13.1069C127.748 12.91 127.708 12.7525 127.708 12.5792C127.712 12.5189 127.712 12.4584 127.708 12.398C127.708 12.0593 127.708 11.7206 127.708 11.3977C127.708 11.0747 127.635 10.5391 127.578 10.1295C127.578 10.0586 127.578 9.99562 127.53 9.91685C127.481 9.83808 127.465 9.60966 127.44 9.46C127.324 8.84531 127.162 8.23977 126.954 7.64834L126.768 7.12847C126.719 7.0182 126.695 6.89217 126.646 6.7819C126.5 6.46683 126.346 6.15963 126.184 5.86031C126.022 5.561 125.892 5.34832 125.795 5.2223C125.673 5.04113 125.552 4.86784 125.422 4.69455L125.057 4.24558L124.693 3.83598L124.344 3.48941C124.214 3.36338 124.077 3.24523 123.947 3.13495L123.525 2.79625L123.08 2.4733L122.593 2.16611C122.439 2.07159 122.285 1.97707 122.123 1.8983L121.54 1.60686L120.891 1.33117L120.526 1.20514L120.413 1.15788L120.154 1.07124C119.886 0.984592 119.602 0.897948 119.343 0.827057C119.084 0.756166 118.687 0.677398 118.346 0.614384H118.144H117.925L117.114 0.504109C116.628 0.456849 116.125 0.425342 115.615 0.417465H115.331L93.025 0.0472565C99.7849 0.0945171 104.494 3.58393 105.345 10.0271C105.345 10.1925 105.394 10.3658 105.41 10.5312L105.459 11.0747C105.459 11.4843 105.507 11.8624 105.459 12.3271C105.459 15.4227 104.291 19.306 101.746 21.2752V21.4484C105.118 22.9056 106.61 27.0646 106.61 31.0187C106.61 39.2421 99.6957 44.8976 92.9116 44.8976L115.153 44.9921C115.909 44.9907 116.663 44.9222 117.406 44.7873H117.584C118.299 44.6447 119.001 44.4472 119.684 44.1966L119.943 44.102C120.613 43.839 121.26 43.5256 121.88 43.1647L122.164 42.9993C122.778 42.6281 123.361 42.2093 123.906 41.7469L124.052 41.6445L124.287 41.4239L124.814 40.9277L125.057 40.6914C125.155 40.5969 125.236 40.4945 125.325 40.3921L125.584 40.1006C125.633 40.0376 125.69 39.9825 125.746 39.9195C125.925 39.6989 126.103 39.4784 126.265 39.25C126.269 39.2318 126.269 39.213 126.265 39.1948C126.289 39.1674 126.31 39.1384 126.33 39.1082C126.443 38.9506 126.557 38.7931 126.662 38.6277C126.768 38.4623 126.897 38.2575 127.011 38.0606C127.108 37.8951 127.197 37.7376 127.278 37.5722C127.359 37.4068 127.457 37.2256 127.538 37.0523L127.611 36.8948C127.621 36.8645 127.634 36.8355 127.651 36.8082C127.651 36.7215 127.724 36.6349 127.765 36.5482L127.959 36.0599C128.024 35.8944 128.081 35.729 128.137 35.5636C128.191 35.4061 128.24 35.2486 128.283 35.091C128.332 34.9335 128.381 34.7681 128.421 34.5948C128.462 34.4215 128.478 34.3506 128.51 34.2246C128.543 34.0985 128.51 34.2246 128.51 34.1694V34.0907L128.608 33.5787C128.608 33.3896 128.664 33.2085 128.689 33.0194V32.7989C128.689 32.7989 128.689 32.728 128.689 32.6886V32.4523C128.689 32.2396 128.689 32.0191 128.689 31.7906C128.689 31.5622 128.689 31.4283 128.689 31.2393V31.0975C128.875 30.7194 128.875 30.3886 128.875 30.0971Z" fill="#BC731E"/>
<path d="M54.6949 9.45212L54.0708 9.53089C53.86 9.53089 53.6493 9.61754 53.4467 9.6648H53.3494H53.2846C53.0981 9.71993 52.9117 9.77507 52.7253 9.84596H52.6686C52.474 9.92473 52.2795 10.0035 52.085 10.098L51.9796 10.1532C51.8094 10.2319 51.6392 10.3264 51.4771 10.421C51.2906 10.5312 51.1123 10.6494 50.934 10.7754L50.8205 10.8542C50.6665 10.9645 50.5206 11.0826 50.3747 11.2086L50.3018 11.2638C50.0992 11.4371 49.8965 11.6261 49.7101 11.8152L49.6128 11.9176C49.4669 12.0751 49.3291 12.2405 49.1833 12.4059C49.1637 12.4362 49.142 12.4651 49.1184 12.4926C49.0211 12.6133 48.9239 12.7394 48.8266 12.8706L48.6969 13.0518L48.5024 13.3275L48.3646 13.5402L48.2106 13.7922L48.0728 14.0285C48.0323 14.1152 47.9837 14.1939 47.9431 14.2727C47.8945 14.3594 47.8459 14.446 47.8053 14.5326C47.7648 14.6114 47.7243 14.6902 47.6919 14.7689C47.6432 14.8635 47.6027 14.958 47.5622 15.0525C47.5222 15.1264 47.487 15.2027 47.4568 15.2809L47.3271 15.5881C47.3271 15.6669 47.2704 15.7378 47.238 15.8166C47.2055 15.8953 47.165 16.0292 47.1245 16.1395C47.0926 16.2139 47.0656 16.2902 47.0434 16.3679C47.0434 16.4861 46.9624 16.5964 46.93 16.7145L46.857 16.9429C46.857 17.0532 46.8003 17.1635 46.7679 17.2816L46.6949 17.5416L46.622 17.8566L46.549 18.1796C46.549 18.2662 46.549 18.3608 46.4923 18.4553L46.4193 18.8334C46.4193 18.9121 46.4193 18.9909 46.3788 19.0697L46.3059 19.5501C46.3059 19.6368 46.3059 19.7313 46.3059 19.818C46.3059 19.9046 46.2653 20.1567 46.2491 20.3299V20.6056C46.2491 20.8183 46.2491 21.031 46.2086 21.2437C46.2086 21.3224 46.2086 21.4012 46.2086 21.4721C46.2086 21.7399 46.2086 22.0077 46.2086 22.2598V22.5669C46.2086 22.8741 46.2086 23.1735 46.2086 23.4649V23.5752C46.241 24.0583 46.2896 24.5309 46.3545 24.993C46.3545 24.993 46.3545 25.0403 46.3545 25.0718C46.4031 25.4183 46.468 25.7649 46.5328 26.1036C46.5366 26.1192 46.5366 26.1353 46.5328 26.1509C46.6058 26.4896 46.6868 26.8204 46.7841 27.1434C46.7804 27.1827 46.7804 27.2222 46.7841 27.2615C46.8732 27.5766 46.9705 27.8759 47.0759 28.1752C47.0759 28.2303 47.0759 28.2776 47.1326 28.3327C47.2461 28.6321 47.3595 28.9156 47.4811 29.1992C47.5034 29.237 47.5223 29.2765 47.5379 29.3173C47.6919 29.6639 47.8621 29.9947 48.0404 30.3177L48.1133 30.4516C48.2511 30.6879 48.3889 30.9163 48.5348 31.1369C48.5611 31.168 48.5829 31.2025 48.5997 31.2393C48.705 31.3968 48.8185 31.5465 48.9239 31.6961L49.0536 31.8615C49.1346 31.9718 49.2238 32.0742 49.3129 32.1845L49.4426 32.342L49.6696 32.5941L49.8155 32.7516L50.0343 32.9643L50.1964 33.1139L50.3909 33.2951L50.5774 33.4605L50.7395 33.5865C50.8114 33.6512 50.8872 33.7117 50.9664 33.7677L51.1285 33.8859L51.3636 34.0513L51.5257 34.1537L51.7526 34.3033L51.931 34.4057L52.166 34.5318L52.3524 34.6184L52.5875 34.7287L52.7901 34.8153L53.0252 34.9098L53.2278 34.9807L53.4629 35.0595L53.6898 35.1225L53.9168 35.1777L54.1761 35.2328L54.395 35.2722H54.6868H54.8975H55.2866H55.5135C61.7627 35.3194 65.0454 29.5379 65.0859 22.2282C64.9887 14.6429 60.8468 9.45212 55.5297 9.38123C55.3028 9.38123 55.0758 9.38123 54.857 9.38123L54.6949 9.45212Z" fill="#F18823"/>
<path d="M95.173 22.1416C95.173 21.5272 95.173 20.9207 95.1162 20.3221V20.2197C95.1162 19.7864 95.0595 19.3611 95.0109 18.9436C95.0109 18.8412 95.0109 18.7388 95.0109 18.6364C95.0109 18.3214 94.9379 18.0063 94.8974 17.6991C94.8974 17.6991 94.8974 17.6518 94.8974 17.6282V17.4786C94.8163 16.9429 94.7191 16.4152 94.6137 15.9032C94.6137 15.8166 94.6137 15.7378 94.6137 15.659C94.5002 15.1234 94.3705 14.6035 94.2246 14.0837C94.2246 13.9734 94.1679 13.871 94.1355 13.7686C93.9896 13.2566 93.8356 12.7604 93.6654 12.272C93.6402 12.2182 93.6186 12.163 93.6005 12.1066C93.4303 11.6497 93.252 11.2008 93.0656 10.7675C93.0432 10.7217 93.0242 10.6743 93.0088 10.6258L92.9602 10.5312C92.8873 10.3658 92.8062 10.2004 92.7333 10.0429C92.6603 9.88535 92.5955 9.75144 92.5225 9.60966L92.2712 9.13705L92.0848 8.79835V8.74322C91.8741 8.38089 91.6552 8.02643 91.4283 7.67985L91.3716 7.58533L91.2338 7.38841L90.8123 6.79765L90.6988 6.63224L90.5772 6.48258L90.2044 6.01785C90.1477 5.95484 90.099 5.88395 90.0423 5.81306L89.945 5.70278L89.5884 5.31682L89.3939 5.09627L89.1588 5.00963L88.8508 4.72606L88.6157 4.48976L88.5185 4.40311L88.2024 4.12743C88.1213 4.05654 88.0484 3.97777 87.9673 3.91475L87.8538 3.82023L87.5377 3.54455L87.3027 3.3555L87.1649 3.26098L86.8488 3.02468L86.6299 2.86714L86.4597 2.76475L86.1274 2.55207L85.9167 2.41817L85.7221 2.30789L85.3655 2.11097L85.1791 2.0007L84.9683 1.8983L84.5874 1.70926L84.401 1.61474L84.1902 1.52809L83.7768 1.34693L83.5823 1.26816L83.3797 1.19727L82.9015 1.02398L82.6745 0.953089L82.5043 0.897951L81.9531 0.740416L81.71 0.677402H81.5884L80.8994 0.496236L80.6806 0.448975H80.6401C80.2834 0.385961 79.9187 0.330824 79.554 0.29144H79.3108C78.9623 0.228426 78.6218 0.212672 78.2409 0.196919H77.8113L55.5865 0.0945206H55.9998C56.8157 0.11317 57.6288 0.194821 58.4314 0.3387C58.5187 0.34988 58.6053 0.365657 58.6908 0.385961C58.9907 0.448975 59.2825 0.511989 59.5824 0.590757L59.7688 0.638018L60.3119 0.795553L60.5064 0.858567C60.7333 0.929458 60.9603 1.00823 61.1791 1.09487L61.5682 1.24453L61.9816 1.41782L62.0869 1.47296C62.3139 1.57535 62.5408 1.67775 62.7597 1.7959C62.8975 1.85892 63.0272 1.92981 63.1568 2.0007L63.7242 2.33152L63.9106 2.4418L64.4537 2.80413L64.6239 2.92228L64.9238 3.15071L65.2967 3.44215C65.629 3.70208 65.9532 3.97777 66.2693 4.27709L66.6016 4.59216L66.9096 4.90723L67.096 5.10415C67.25 5.26956 67.404 5.43497 67.5499 5.60826L67.8174 5.92333C68.2538 6.44975 68.6597 6.99934 69.0332 7.56958C69.2602 7.91615 69.479 8.27061 69.6817 8.64082L69.9005 9.03466C70.6845 10.5092 71.3092 12.0587 71.7647 13.6583C71.7647 13.7686 71.8215 13.871 71.8539 13.9734C71.9917 14.4854 72.1214 15.0052 72.2348 15.5487L72.2835 15.7929C72.4618 16.6751 72.6077 17.5888 72.713 18.5262C72.713 18.6286 72.713 18.7152 72.713 18.8176C72.713 19.243 72.7941 19.6683 72.8184 20.1094C72.8184 20.7868 72.8833 21.4878 72.8833 22.1889C72.8833 22.3306 72.8833 22.4646 72.8833 22.5985C72.8833 23.0238 72.8833 23.4413 72.8833 23.8509C72.8833 24.7409 72.7617 25.6153 72.6563 26.466C72.6563 26.6314 72.6563 26.7889 72.5915 26.9543L72.4942 27.5608C72.4942 27.7184 72.4456 27.8838 72.4131 28.0413C72.2997 28.6793 72.1619 29.2937 72.016 29.9002L71.9187 30.2783C71.789 30.7667 71.6431 31.2393 71.4972 31.7119L71.2865 32.3026C70.8723 33.4795 70.3628 34.6226 69.7627 35.7212L69.5195 36.1544C69.3899 36.3828 69.2521 36.6112 69.1062 36.8318L68.9684 37.0523C68.7738 37.3438 68.5793 37.6352 68.3767 37.9188L68.2308 38.1078C68.0606 38.3284 67.8904 38.5568 67.7121 38.7695C67.7158 38.7877 67.7158 38.8064 67.7121 38.8246C67.404 39.1948 67.0879 39.5571 66.7556 39.9037L66.707 39.9589C66.4071 40.2661 66.091 40.5654 65.7749 40.8489L65.3858 41.1876L64.9238 41.5578L64.705 41.7311L64.1376 42.1329L63.8539 42.3298L63.7566 42.3928C63.5702 42.5188 63.3676 42.637 63.1731 42.7551L62.9542 42.8811L62.5652 43.0938C62.056 43.3603 61.5309 43.5971 60.9927 43.8027L60.7496 43.9051L60.5307 43.976L59.9714 44.1651L59.7202 44.236L59.1285 44.3935L58.934 44.4407C58.6638 44.5038 58.3936 44.5589 58.1234 44.6062H57.9532L57.3048 44.7007H57.0373C56.8428 44.7007 56.6401 44.7401 56.4456 44.7479H56.1944C55.9188 44.7479 55.6351 44.7479 55.3838 44.7479L77.6249 44.8346H78.4354H78.6948L79.2865 44.7873H79.554L80.2024 44.7007H80.3807L81.1912 44.5431L81.3939 44.4959L81.9856 44.3383L82.2368 44.2596L82.7961 44.0784L83.0149 43.9996C83.2662 43.9051 83.5175 43.8106 83.7606 43.7003L83.8498 43.6609C84.0686 43.5664 84.2794 43.4719 84.4901 43.3616L84.7171 43.2514L85.2277 42.9757L85.4465 42.8496L86.0382 42.4873L86.1355 42.4243C86.3624 42.2746 86.5894 42.125 86.8082 41.9596L86.9866 41.8257L87.4648 41.4555L87.6674 41.2822L87.8295 41.1561L88.0646 40.9435L88.3564 40.6835L88.713 40.3291C88.8103 40.2424 88.8994 40.1479 88.9886 40.0534L89.0777 39.9667L89.1993 39.825C89.4155 39.5939 89.6262 39.3576 89.8315 39.116L89.9612 38.9743C89.9857 38.9383 90.0127 38.904 90.0423 38.8719C90.2125 38.6513 90.3908 38.4308 90.561 38.2023C90.5942 38.1493 90.6322 38.0992 90.6745 38.0527C90.869 37.777 91.0635 37.5013 91.2581 37.2099C91.3067 37.139 91.3553 37.0523 91.404 36.9736C91.5256 36.7766 91.6552 36.5797 91.7687 36.3671C91.8579 36.2174 91.9389 36.0599 92.0281 35.9023L92.2226 35.5479C92.3361 35.3273 92.4496 35.0989 92.563 34.8626L92.6441 34.6972C92.7738 34.4136 92.9035 34.1222 93.025 33.8307C93.025 33.7441 93.0899 33.6496 93.1304 33.555C93.1709 33.4605 93.2844 33.177 93.3574 32.98C93.3606 32.9539 93.3606 32.9274 93.3574 32.9013L93.4789 32.5468C93.5357 32.3893 93.5924 32.2396 93.6492 32.0742C93.6492 32.0348 93.6492 31.9876 93.6897 31.9482L93.8194 31.5386L93.941 31.1369L93.9896 30.9636L94.1112 30.5225L94.2084 30.168L94.2571 29.9475C94.2976 29.7821 94.3381 29.6167 94.3705 29.4512L94.4435 29.1362L94.4921 28.892C94.4921 28.7108 94.5651 28.5375 94.5975 28.3564C94.6299 28.1752 94.5975 28.1516 94.6542 28.0492C94.711 27.9468 94.6542 27.8838 94.6542 27.7971C94.6542 27.7105 94.711 27.3954 94.7434 27.1906L94.792 26.8755V26.655C94.792 26.4108 94.8488 26.1666 94.8731 25.9146C94.8731 25.8043 94.8731 25.6862 94.8731 25.5759C94.869 25.5234 94.869 25.4708 94.8731 25.4183C94.8731 25.0796 94.9217 24.7331 94.946 24.3786C94.946 24.2998 94.946 24.2132 94.946 24.1344V24.0793C94.946 23.6618 94.946 23.2365 94.946 22.8111V22.4488C95.1811 22.2834 95.173 22.2125 95.173 22.1416Z" fill="#F9B33C"/>
<path d="M9.92094 34.8941L10.0344 15.919L0 34.8468L9.92094 34.8941Z" fill="#F9B33C"/>
<path d="M39.7648 35.0831V23.0711L39.9026 0.0866445L17.6534 0L17.4508 34.9807L21.7547 34.9965V35.0123H21.8196L21.8115 36.0362L21.7547 44.9134L44.0039 45L44.0607 35.0989L39.7648 35.0831Z" fill="#F9B33C"/>
</g>
<defs>
<clipPath id="clip0_4_4">
<rect width="341" height="45" fill="white"/>
</clipPath>
</defs>
</svg>
