<svg width="97" height="44" viewBox="0 0 97 44" fill="none" xmlns="http://www.w3.org/2000/svg">
<g clip-path="url(#clip0_73_2200)">
<path fill-rule="evenodd" clip-rule="evenodd" d="M14.7909 26.5965C13.2252 28.0834 11.1533 28.8273 8.57508 28.8282C5.99688 28.8291 3.92495 28.0794 2.3593 26.579C0.786432 25.0814 0 23.113 0 20.6739V10.2034H4.93614V20.1026C4.93614 21.4008 5.25729 22.4134 5.89959 23.1403C6.54189 23.8672 7.43237 24.2307 8.57102 24.2307C9.70878 24.2307 10.5988 23.8672 11.2411 23.1403C11.8834 22.4134 12.2046 21.4008 12.2046 20.1026V10.2034H17.1407V20.6739C17.1407 23.1354 16.3574 25.1096 14.7909 26.5965ZM34.6543 3.6626H39.5918V28.3252H35.9434L35.3692 26.8137C33.7477 28.179 31.8428 28.8617 29.6547 28.8617C27.9278 28.8864 26.225 28.458 24.7185 27.6198C23.2744 26.8127 22.0861 25.6212 21.2877 24.1797C20.4545 22.6749 20.029 20.9812 20.0527 19.2643C20.0527 17.4529 20.4643 15.8198 21.2877 14.3651C22.0903 12.9311 23.2779 11.7463 24.7185 10.9424C26.225 10.1042 27.9278 9.67583 29.6547 9.70051C31.433 9.68064 33.1758 10.1949 34.6543 11.1758V3.66528V3.6626ZM26.4738 22.8211C27.4215 23.7608 28.6106 24.2307 30.0412 24.2307C31.4717 24.2307 32.6608 23.7537 33.6085 22.7996C34.5544 21.8483 35.0277 20.6623 35.0286 19.2415C35.0295 17.8208 34.5562 16.641 33.6085 15.7022C32.6617 14.7616 31.4726 14.2918 30.0412 14.2927C28.6097 14.2935 27.4206 14.7634 26.4738 15.7022C25.528 16.641 25.055 17.8266 25.055 19.259C25.055 20.6913 25.528 21.8769 26.4738 22.8157V22.8211ZM54.3354 9.76757C56.4073 9.76757 58.0469 10.4556 59.254 11.8316C60.4611 13.2077 61.0642 15.0477 61.0633 17.3518V28.3252H56.1272V18.123C56.1272 15.4165 55.0678 14.0633 52.949 14.0633C52.1824 14.0447 51.4261 14.2424 50.7681 14.6333C50.1376 15.0257 49.6423 15.5992 49.3479 16.2776C49.0052 17.0718 48.8379 17.9298 48.8574 18.7936V28.3252H43.9226V10.2034H47.3008L48.2804 12.4526C48.6204 12.0275 49.0157 11.6491 49.456 11.3273C50.3714 10.6571 51.4204 10.1885 52.5328 9.95265C53.1276 9.82726 53.7341 9.76522 54.3422 9.76757H54.3354ZM82.9064 19.1973C82.9055 19.68 82.8716 20.1622 82.805 20.6404H69.0101C69.2163 21.8698 69.7064 22.8131 70.4802 23.4702C71.2541 24.1274 72.2517 24.4573 73.4733 24.46C74.2635 24.4705 75.0432 24.2798 75.738 23.9061C76.399 23.5522 76.9489 23.024 77.327 22.3799H82.5334C81.8578 24.3469 80.7083 25.9116 79.085 27.0739C77.4617 28.2363 75.5911 28.8174 73.4733 28.8174C70.7707 28.8174 68.5187 27.9001 66.717 26.0654C64.9153 24.2307 64.0145 21.9601 64.0145 19.2536C64.0108 18.2085 64.1647 17.1688 64.4712 16.1689C64.7583 15.2181 65.2041 14.3218 65.79 13.5175C66.3528 12.7485 67.0277 12.0669 67.7926 11.495C68.5823 10.9136 69.4635 10.4659 70.4005 10.1699C71.3947 9.85329 72.4332 9.69486 73.4773 9.70051C75.3024 9.70051 76.9419 10.1257 78.3959 10.976C79.8175 11.7923 80.9782 12.9902 81.7443 14.4321C82.525 15.9 82.9258 17.5375 82.9104 19.1973H82.9064ZM73.4733 13.8608C72.3679 13.8608 71.4383 14.163 70.6843 14.7674C69.9303 15.3718 69.4172 16.211 69.1452 17.2848H77.9675C77.7733 16.6044 77.4403 15.9708 76.9892 15.4233C76.5711 14.9274 76.0454 14.5317 75.4515 14.2658C74.8288 13.9924 74.1541 13.8551 73.4733 13.8635V13.8608ZM94.6731 23.9624H96.9054V28.3252H93.4219C92.0922 28.3252 90.9374 28.0677 89.9572 27.5527C88.9945 27.0559 88.2094 26.2766 87.7088 25.321C87.1899 24.3473 86.9304 23.1895 86.9304 21.8474V14.1304H83.6171V13.0896L90.8531 5.47183H91.7652V10.2034H96.8027V14.1304H91.8666V21.2104C91.8666 22.083 92.1089 22.7599 92.5936 23.2409C93.0782 23.7219 93.7714 23.9624 94.6731 23.9624Z" fill="#F9F9F9"/>
<path fill-rule="evenodd" clip-rule="evenodd" d="M8.57101 7.20594C9.28918 7.20594 9.99122 6.99455 10.5883 6.59852C11.1854 6.20248 11.6508 5.63958 11.9256 4.98101C12.2004 4.32244 12.2722 3.59778 12.132 2.8987C11.9918 2.19961 11.6458 1.5575 11.1379 1.05356C10.63 0.549629 9.98292 0.206516 9.27852 0.0676175C8.57412 -0.0712807 7.84404 0.000276015 7.18062 0.273237C6.5172 0.546199 5.95023 1.0083 5.55143 1.60111C5.15264 2.19391 4.93992 2.89078 4.94019 3.60358C4.94233 4.55857 5.32559 5.47381 6.00608 6.14896C6.68657 6.82411 7.60884 7.20417 8.57101 7.20594Z" fill="#F9F9F9"/>
<path fill-rule="evenodd" clip-rule="evenodd" d="M65.536 32.4438H66.5576V41.1882H65.7765L65.6319 40.2695C64.9915 40.9777 64.1622 41.3317 63.1443 41.3317C62.166 41.3317 61.3629 41.0116 60.735 40.3715C60.4229 40.0541 60.1783 39.6776 60.0158 39.2645C59.8533 38.8514 59.7762 38.4101 59.7891 37.9668C59.7891 36.9975 60.1044 36.1928 60.735 35.5527C61.3656 34.9125 62.1673 34.5955 63.1402 34.6018C63.5837 34.5887 64.0251 34.6667 64.4367 34.8311C64.8483 34.9954 65.2212 35.2424 65.532 35.5567V32.4438H65.536ZM61.5093 39.6727C61.7301 39.8965 61.9953 40.0725 62.2881 40.1895C62.5809 40.3066 62.895 40.3621 63.2105 40.3527C63.528 40.3614 63.8439 40.305 64.1385 40.1871C64.433 40.0692 64.6999 39.8922 64.9225 39.6673C65.3612 39.2075 65.6063 38.5987 65.6075 37.9654C65.6088 37.3321 65.3661 36.7223 64.9293 36.2608C64.706 36.0368 64.4387 35.8608 64.1439 35.7438C63.8491 35.6268 63.5332 35.5713 63.2159 35.5808C62.8913 35.5793 62.5697 35.6422 62.27 35.7659C61.9876 35.8802 61.7306 36.0484 61.5133 36.2608C61.299 36.4777 61.1312 36.7354 61.0201 37.0185C60.8995 37.3203 60.8385 37.6422 60.8404 37.9668C60.8313 38.2816 60.8865 38.5951 61.0026 38.8882C61.1187 39.1814 61.2933 39.4482 61.516 39.6727H61.5093ZM68.5763 33.6254V32.468H69.683V33.6254H68.5763ZM68.625 41.1882V34.7506H69.6465V41.1882H68.625ZM77.0622 34.7506H77.7473V40.2856C77.7473 41.3273 77.4631 42.1463 76.8947 42.7426C76.3263 43.339 75.5488 43.6376 74.5624 43.6385C73.7697 43.6358 73.1031 43.44 72.5626 43.0511C72.019 42.6611 71.6352 42.0897 71.4815 41.4417H72.5031C72.6426 41.8332 72.9174 42.163 73.2787 42.3725C73.666 42.599 74.1089 42.7146 74.5584 42.7064C75.2151 42.7064 75.7421 42.5012 76.1393 42.0908C76.5366 41.6804 76.7348 41.1221 76.7339 40.4157V40.0214C76.291 40.4892 75.7161 40.8134 75.0845 40.9515C74.4528 41.0896 73.7939 41.0353 73.1939 40.7956C72.5939 40.5559 72.0808 40.142 71.7218 39.608C71.3627 39.0741 71.1744 38.445 71.1816 37.8031C71.1753 37.2366 71.3203 36.6785 71.6018 36.1857C71.8749 35.7045 72.2735 35.3052 72.7558 35.0296C73.248 34.7461 73.8082 34.5997 74.3773 34.6058C74.8649 34.6024 75.3472 34.7063 75.7894 34.9102C76.2152 35.1046 76.5912 35.3921 76.8893 35.7512L77.0568 34.7493L77.0622 34.7506ZM74.4948 40.0107C74.8979 40.016 75.2955 39.9176 75.6488 39.725C75.9875 39.5424 76.2682 39.2698 76.4596 38.9377C76.6545 38.5918 76.7538 38.2008 76.7474 37.8045C76.7556 37.5088 76.702 37.2146 76.5902 36.9404C76.4783 36.6662 76.3106 36.4179 76.0974 36.2112C75.6589 35.8064 75.0822 35.5814 74.4834 35.5814C73.8845 35.5814 73.3078 35.8064 72.8693 36.2112C72.4577 36.6359 72.2277 37.2024 72.2277 37.7917C72.2277 38.3811 72.4577 38.9475 72.8693 39.3723C73.0823 39.5812 73.3359 39.745 73.6146 39.8536C73.8934 39.9621 74.1915 40.0133 74.4908 40.004L74.4948 40.0107ZM79.7648 33.6294V32.472H80.8701V33.6294H79.7648ZM79.8121 41.1922V34.7547H80.8336V41.1922H79.8121ZM85.5698 40.2534H86.2792V41.1922H85.4373C84.7401 41.1922 84.191 40.9915 83.7902 40.5901C83.3893 40.1886 83.1893 39.6378 83.1902 38.9377V35.6653H82.0349V35.4856L84.0482 33.3867H84.205V34.7466H86.2319V35.6653H84.205V38.8935C84.1967 39.1492 84.2505 39.4031 84.3617 39.6338C84.4632 39.8299 84.6251 39.9888 84.8239 40.0871C85.0545 40.1959 85.3078 40.2487 85.563 40.2414L85.5698 40.2534ZM93.0936 34.7547H93.9043V41.1922H93.0517L92.9436 40.2145C92.6405 40.5704 92.2603 40.8537 91.8315 41.0434C91.3791 41.2413 90.8894 41.341 90.3951 41.3357C89.9515 41.3466 89.5103 41.267 89.0989 41.1018C88.6875 40.9367 88.3146 40.6894 88.0034 40.3755C87.3854 39.7253 87.0411 38.8653 87.0411 37.9714C87.0411 37.0776 87.3854 36.2176 88.0034 35.5674C88.3146 35.2534 88.6875 35.0062 89.0989 34.8411C89.5103 34.6759 89.9515 34.5963 90.3951 34.6071C90.894 34.6009 91.3883 34.7025 91.8437 34.9049C92.2718 35.098 92.6513 35.3835 92.9544 35.7404L93.0895 34.7506L93.0936 34.7547ZM88.7695 39.6754C89.2291 40.1136 89.8416 40.3583 90.4789 40.3583C91.1161 40.3583 91.7287 40.1136 92.1882 39.6754C92.621 39.2111 92.8614 38.6019 92.8614 37.9694C92.8614 37.3369 92.621 36.7277 92.1882 36.2635C91.728 35.8259 91.1149 35.5822 90.4775 35.5834C89.8402 35.5847 89.2281 35.8308 88.7695 36.2702C88.3328 36.7301 88.0896 37.3381 88.0896 37.9701C88.0896 38.6021 88.3328 39.2101 88.7695 39.67V39.6754ZM95.9623 41.1963V32.4519H96.9838V41.1963H95.9623Z" fill="#F9F9F9"/>
</g>
<defs>
<clipPath id="clip0_73_2200">
<rect width="97" height="43.687" fill="white"/>
</clipPath>
</defs>
</svg>
